<?xml version="1.0" standalone="no"?>
<!DOCTYPE svg PUBLIC "-//W3C//DTD SVG 1.1//EN" "http://www.w3.org/Graphics/SVG/1.1/DTD/svg11.dtd" >
<svg xmlns="http://www.w3.org/2000/svg" xmlns:xlink="http://www.w3.org/1999/xlink" version="1.1">
<metadata>
Created by FontForge 20161116 at Sun May  4 23:54:23 2014
 By Jimmy Warting
Copyright \(c\) 2014 by Charles Daoud. All rights reserved.
</metadata>
<defs>
<font id="Dual-300" horiz-adv-x="692" >
  <font-face 
    font-family="Dual"
    font-weight="300"
    font-stretch="normal"
    units-per-em="1000"
    panose-1="0 0 0 0 0 0 0 0 0 0"
    ascent="750"
    descent="-250"
    x-height="500"
    cap-height="710"
    bbox="-29 -250 1660 940"
    underline-thickness="50"
    underline-position="-100"
    stemh="40"
    stemv="40"
    unicode-range="U+000D-FB04"
  />
<missing-glyph horiz-adv-x="268" 
 />
    <glyph glyph-name="AE" unicode="AE" horiz-adv-x="1003" 
d="M507 0v215h-309l-151 -215h-48l499 710h449v-40h-400v-295h370v-40h-370v-295h400v-40h-440zM507 255v398l-281 -398h281z" />
    <glyph glyph-name="OE" unicode="OE" horiz-adv-x="991" 
d="M405 0c-196 0 -355 159 -355 355s159 355 355 355h530v-40h-410v-295h380v-40h-380v-295h410v-40h-530zM405 670c-174 0 -315 -141 -315 -315s141 -315 315 -315h80v630h-80z" />
    <glyph glyph-name="ae" unicode="ae" horiz-adv-x="872" 
d="M99 432l-29 28c36 27 91 50 160 50c91 0 167 -41 190 -121c38 73 106 121 193 121c134 0 225 -116 225 -260v-10h-410c4 -117 76 -210 185 -210c75 0 123 34 161 85l31 -27c-45 -60 -104 -98 -192 -98c-86 0 -154 47 -192 119c-22 -69 -99 -119 -191 -119
c-109 0 -198 61 -198 148s98 142 218 142h138v56c0 94 -71 134 -158 134c-59 0 -102 -19 -131 -38zM388 240h-138c-98 0 -178 -37 -178 -102s71 -108 158 -108s158 53 158 118v92zM613 470c-103 0 -173 -83 -184 -190h367c-11 107 -81 190 -183 190z" />
    <glyph glyph-name="ff" unicode="ff" horiz-adv-x="554" 
d="M146 460v-460h-40v460h-80v40h80v110c0 83 67 150 150 150c41 0 79 -17 106 -44l-29 -27c-20 19 -47 31 -77 31c-61 0 -110 -49 -110 -110v-110h224v110c0 83 67 150 150 150c41 0 79 -17 106 -44l-29 -27c-20 19 -47 31 -77 31c-61 0 -110 -49 -110 -110v-110h140v-40
h-140v-460h-40v460h-224z" />
    <glyph glyph-name="ffi" unicode="ffi" horiz-adv-x="750" 
d="M362 716l-29 -27c-20 19 -47 31 -77 31c-61 0 -110 -49 -110 -110v-110h224v100c0 83 67 150 150 150s150 -67 150 -150h-40c0 61 -49 110 -110 110s-110 -49 -110 -110v-100h140v-40h-140v-460h-40v460h-224v-460h-40v460h-80v40h80v110c0 83 67 150 150 150
c41 0 79 -17 106 -44zM630 0v500h40v-500h-40z" />
    <glyph glyph-name="ffl" unicode="ffl" horiz-adv-x="751" 
d="M520 750h150v-750h-40v710h-110c-61 0 -110 -49 -110 -110v-100h140v-40h-140v-460h-40v460h-224v-460h-40v460h-80v40h80v110c0 83 67 150 150 150c41 0 79 -17 106 -44l-29 -27c-20 19 -47 31 -77 31c-61 0 -110 -49 -110 -110v-110h224v100c0 83 67 150 150 150z" />
    <glyph glyph-name="fi" unicode="fi" horiz-adv-x="487" 
d="M23 460v40h84v100c0 83 67 150 150 150s150 -67 150 -150h-40c0 61 -49 110 -110 110s-110 -49 -110 -110v-100h140v-40h-140v-460h-40v460h-84zM367 0v500h40v-500h-40z" />
    <glyph glyph-name="fl" unicode="fl" horiz-adv-x="487" 
d="M146 460v-460h-40v460h-80v40h80v100c0 83 67 150 150 150h150v-750h-40v710h-110c-61 0 -110 -49 -110 -110v-100h140v-40h-140z" />
    <glyph glyph-name="oe" unicode="oe" horiz-adv-x="979" 
d="M719 -10c-98 0 -173 61 -206 150c-38 -92 -124 -150 -224 -150c-135 0 -245 106 -245 260s110 260 245 260c100 0 186 -58 224 -151c33 89 108 151 206 151c134 0 225 -116 225 -260v-20h-410c8 -112 79 -200 185 -200c75 0 123 34 161 85l31 -27
c-45 -60 -104 -98 -192 -98zM84 250c0 -131 92 -220 205 -220s205 89 205 220s-92 220 -205 220s-205 -89 -205 -220zM719 470c-106 0 -177 -89 -185 -200h369c-7 111 -78 200 -184 200z" />
    <glyph glyph-name=".notdef" horiz-adv-x="268" 
 />
    <glyph glyph-name="NULL" horiz-adv-x="0" 
 />
    <glyph glyph-name="NULL" horiz-adv-x="0" 
 />
    <glyph glyph-name="CR" unicode="&#xd;" horiz-adv-x="268" 
 />
    <glyph glyph-name="space" unicode=" " horiz-adv-x="268" 
 />
    <glyph glyph-name="A.alt10" 
d="M203 0l94 218h-147l-94 -218h-44l308 710h52l308 -710h-44l-95 218h-200l-94 -218h-44zM168 258h147l104 241l-73 169zM441 448l-82 -190h165z" />
    <glyph glyph-name="A.alt11" 
d="M12 0l308 710h52l308 -710h-44l-95 218h-147l95 -218h-44l-95 218h-200l-94 -218h-44zM346 668l-74 -169l105 -241h147zM250 448l-82 -190h165z" />
    <glyph glyph-name="A.alt12" 
d="M372 710l308 -710h-44l-132 304l-132 -304h-52l-132 304l-132 -304h-44l308 710h52zM210 355l136 -314l136 314l-136 313z" />
    <glyph glyph-name="A.alt13" 
d="M372 710l308 -710h-44l-290 668l-290 -668h-44l308 710h52zM241 196c0 -58 47 -105 105 -105s105 47 105 105s-47 105 -105 105s-105 -47 -105 -105zM281 196c0 36 29 65 65 65s65 -29 65 -65s-29 -65 -65 -65s-65 29 -65 65z" />
    <glyph glyph-name="A.alt14" 
d="M372 710l308 -710h-44l-290 668l-290 -668h-44l308 710h52zM346 121l-52 -121h104z" />
    <glyph glyph-name="A.alt15" 
d="M372 710l308 -710h-44l-290 668l-290 -668h-44l308 710h52zM254 0h-44l136 315l136 -315h-44l-92 212z" />
    <glyph glyph-name="A.alt16" 
d="M372 710l308 -710h-668l308 710h52zM346 668l-273 -628h545zM482 129h-272l136 315zM346 341l-75 -172h149z" />
    <glyph glyph-name="A.alt17" horiz-adv-x="690" 
d="M11 0l334 750l334 -750h-44l-97 218h-386l-97 -218h-44zM345 650l-175 -392h350z" />
    <glyph glyph-name="A.alt2" 
d="M372 710l308 -710h-44l-94 218h-392l-94 -218h-44l308 710h52zM346 668l-143 -330h286zM185 298l-17 -40h356l-17 40h-322z" />
    <glyph glyph-name="A.alt3" 
d="M56 0h-44l308 710h52l308 -710h-44l-128 295zM346 668l-261 -601l407 265z" />
    <glyph glyph-name="A.alt4" 
d="M372 710l308 -710h-44l-452 295l-128 -295h-44l308 710h52zM346 668l-146 -336l407 -265z" />
    <glyph glyph-name="A.alt5" 
d="M326 0v622l-270 -622h-44l308 710h52l308 -710h-44l-270 622v-622h-40z" />
    <glyph glyph-name="A.alt6" horiz-adv-x="694" 
d="M125 258l-112 -258h44l94 218h391l95 -218h44l-112 258h-444zM230 500l91 210h52l91 -210h-234zM347 668l-56 -128h111z" />
    <glyph glyph-name="A.alt7" horiz-adv-x="693" 
d="M636 0l-95 218h-391l-94 -218h-44l308 710h44l-196 -452h400l112 -258h-44z" />
    <glyph glyph-name="A.alt8" 
d="M636 0c-31 72 -133 131 -290 131s-259 -59 -290 -131h-44l308 710h52l308 -710h-44zM346 171c105 0 186 -25 244 -65l-244 562l-244 -562c57 40 138 65 244 65z" />
    <glyph glyph-name="A.alt9" 
d="M372 710l308 -710h-668l308 710h52zM134 180l-61 -140h545l-60 140h-424zM212 360l-61 -140h389l-60 140h-268zM346 668l-117 -268h233z" />
    <glyph glyph-name="Aacute" unicode="&#xc1;" 
d="M372 710l308 -710h-44l-95 218h-391l-94 -218h-44l308 710h52zM346 668l-178 -410h356zM278 770l-20 34l156 90l20 -34z" />
    <glyph glyph-name="Abreve" unicode="&#x102;" 
d="M372 710l308 -710h-44l-95 218h-391l-94 -218h-44l308 710h52zM346 668l-178 -410h356zM469 893c0 -68 -55 -123 -123 -123s-123 55 -123 123h40c0 -46 37 -83 83 -83s83 37 83 83h40z" />
    <glyph glyph-name="Acircumflex" unicode="&#xc2;" 
d="M372 710l308 -710h-44l-95 218h-391l-94 -218h-44l308 710h52zM346 668l-178 -410h356zM248 770l-25 31l123 93l123 -93l-25 -31l-98 74z" />
    <glyph glyph-name="Adieresis" unicode="&#xc4;" 
d="M372 710l308 -710h-44l-95 218h-391l-94 -218h-44l308 710h52zM346 668l-178 -410h356zM251 774v60h50v-60h-50zM391 774v60h50v-60h-50z" />
    <glyph glyph-name="Agrave" unicode="&#xc0;" 
d="M372 710l308 -710h-44l-95 218h-391l-94 -218h-44l308 710h52zM346 668l-178 -410h356zM434 804l-20 -34l-156 90l20 34z" />
    <glyph glyph-name="Amacron" unicode="&#x100;" 
d="M372 710l308 -710h-44l-95 218h-391l-94 -218h-44l308 710h52zM346 668l-178 -410h356zM241 794v40h210v-40h-210z" />
    <glyph glyph-name="Aogonek" unicode="&#x104;" 
d="M714 -185l20 -21c-17 -19 -50 -44 -90 -44c-50 0 -90 40 -90 90c0 107 96 160 96 160h-14l-95 218h-391l-94 -218h-44l308 710h52l308 -710s-96 -64 -96 -160c0 -33 27 -60 60 -60c29 0 52 15 70 35zM346 668l-178 -410h356z" />
    <glyph glyph-name="Aring" unicode="&#xc5;" 
d="M372 710l308 -710h-44l-95 218h-391l-94 -218h-44l308 710h52zM346 668l-178 -410h356zM306 830c0 -22 18 -40 40 -40s40 18 40 40s-18 40 -40 40s-40 -18 -40 -40zM266 830c0 44 36 80 80 80s80 -36 80 -80s-36 -80 -80 -80s-80 36 -80 80z" />
    <glyph glyph-name="Atilde" unicode="&#xc3;" 
d="M372 710l308 -710h-44l-95 218h-391l-94 -218h-44l308 710h52zM346 668l-178 -410h356zM410 832l23 23l28 -28l-23 -23c-35 -35 -71 -35 -106 0c-18 18 -32 18 -50 0l-23 -23l-28 28l23 23c35 35 71 35 106 0c18 -18 32 -18 50 0z" />
    <glyph glyph-name="B" unicode="B" horiz-adv-x="733" 
d="M493 0h-393v710h352c104 0 188 -84 188 -188c0 -66 -34 -124 -86 -157c74 -26 127 -96 127 -178c0 -104 -84 -187 -188 -187zM493 335h-353v-295h353c82 0 148 65 148 147s-66 148 -148 148zM140 375h312c82 0 148 65 148 147s-66 148 -148 148h-312v-295z" />
    <glyph glyph-name="B.alt" horiz-adv-x="733" 
d="M493 0h-393v710h352c104 0 188 -84 188 -188c0 -66 -34 -124 -86 -157c74 -26 127 -96 127 -178c0 -104 -84 -187 -188 -187zM493 335h-273v-295h273c82 0 148 65 148 147s-66 148 -148 148zM452 670h-232v-295h232c82 0 148 65 148 147s-66 148 -148 148zM140 375h40
v295h-40v-295zM140 40h40v295h-40v-295z" />
    <glyph glyph-name="B.alt1" horiz-adv-x="749" 
d="M100 0v710h392c104 0 188 -84 188 -188c0 -74 -42 -137 -103 -167c61 -31 103 -95 103 -168c0 -104 -84 -187 -188 -187h-392zM304 522c0 60 28 113 71 148h-235v-630h235c-43 34 -71 88 -71 148c0 73 41 136 102 167c-61 31 -102 94 -102 167zM640 522
c0 82 -66 148 -148 148s-148 -66 -148 -148s66 -147 148 -147s148 65 148 147zM640 187c0 82 -66 148 -148 148s-148 -66 -148 -148s66 -147 148 -147s148 65 148 147z" />
    <glyph glyph-name="B.alt2" horiz-adv-x="733" 
d="M493 0h-393v710h352c104 0 188 -84 188 -188c0 -66 -34 -124 -86 -157c74 -26 127 -96 127 -178c0 -104 -84 -187 -188 -187zM493 335h-325l279 -295h46c82 0 148 65 148 147s-66 148 -148 148zM452 670h-284l279 -295h5c82 0 148 65 148 147s-66 148 -148 148zM140 375
h253l-253 267v-267zM140 40h253l-253 267v-267z" />
    <glyph glyph-name="B.alt3" horiz-adv-x="733" 
d="M493 0h-393v710h352c104 0 188 -84 188 -188c0 -66 -34 -124 -86 -157c74 -26 127 -96 127 -178c0 -104 -84 -187 -188 -187zM493 40c82 0 148 65 148 147s-66 148 -148 148h-19l-280 -295h299zM452 670h-258l278 -294c72 10 128 71 128 146c0 82 -66 148 -148 148z
M140 40l280 295h-280v-295zM140 375h280l-280 295v-295z" />
    <glyph glyph-name="B.alt4" horiz-adv-x="733" 
d="M493 0h-393v710h352c104 0 188 -84 188 -188c0 -66 -34 -124 -86 -157c74 -26 127 -96 127 -178c0 -104 -84 -187 -188 -187zM493 335h-353v-128h499c-10 72 -71 128 -146 128zM140 40h353c75 0 136 54 146 127h-499v-127zM452 670h-312v-128h458
c-10 72 -71 128 -146 128zM140 375h312c75 0 136 54 146 127h-458v-127z" />
    <glyph glyph-name="B.alt5" horiz-adv-x="733" 
d="M493 335h-393v375h352c104 0 188 -84 188 -188c0 -66 -34 -124 -86 -157c74 -26 127 -96 127 -178c0 -104 -84 -187 -188 -187h-393v40h393c82 0 148 65 148 147s-66 148 -148 148zM140 375h312c82 0 148 65 148 147s-66 148 -148 148h-312v-295z" />
    <glyph glyph-name="B.alt6" horiz-adv-x="733" 
d="M493 0h-393v710h352c104 0 188 -84 188 -188c0 -66 -34 -124 -86 -157c74 -26 127 -96 127 -178c0 -104 -84 -187 -188 -187zM452 375c82 0 148 65 148 147s-66 148 -148 148h-312v-630h353c82 0 148 65 148 147s-66 148 -148 148h-41v40z" />
    <glyph glyph-name="B.alt7" horiz-adv-x="733" 
d="M493 0h-393v710h352c104 0 188 -84 188 -188c0 -66 -34 -124 -86 -157c74 -26 127 -96 127 -178c0 -104 -84 -187 -188 -187zM140 40h272v630h-272v-630zM452 40h41c82 0 148 65 148 147s-66 148 -148 148h-41v-295zM600 522c0 82 -66 148 -148 148v-295
c82 0 148 65 148 147z" />
    <glyph glyph-name="B.alt8" horiz-adv-x="733" 
d="M493 0h-393v375h293l-280 295h-13v40h352c104 0 188 -84 188 -188c0 -66 -34 -124 -86 -157c74 -26 127 -96 127 -178c0 -104 -84 -187 -188 -187zM493 335h-325l279 -295h46c82 0 148 65 148 147s-66 148 -148 148zM452 670h-284l279 -295h5c82 0 148 65 148 147
s-66 148 -148 148zM140 40h253l-253 267v-267z" />
    <glyph glyph-name="B.alt9" horiz-adv-x="733" 
d="M493 0h-393v710h352c104 0 188 -84 188 -188c0 -66 -34 -124 -86 -157c74 -26 127 -96 127 -178c0 -104 -84 -187 -188 -187zM493 335h-113v-295h113c82 0 148 65 148 147s-66 148 -148 148zM140 375h200v295h-200v-295zM140 40h200v295h-200v-295zM452 670h-72v-295h72
c82 0 148 65 148 147s-66 148 -148 148z" />
    <glyph glyph-name="C" unicode="C" horiz-adv-x="717" 
d="M681 91c-67 -66 -159 -107 -261 -107c-205 0 -371 166 -371 371s166 371 371 371c102 0 194 -41 261 -107l-28 -28c-60 59 -142 95 -233 95c-183 0 -331 -148 -331 -331s148 -331 331 -331c91 0 173 36 233 95z" />
    <glyph glyph-name="C.alt" horiz-adv-x="711" 
d="M681 91c-67 -66 -159 -107 -261 -107c-205 0 -371 166 -371 371s166 371 371 371c102 0 194 -41 261 -107l-496 -497c60 -61 143 -98 235 -98c91 0 173 36 233 95zM89 355c0 -78 26 -148 70 -205l465 466c-57 44 -127 70 -204 70c-183 0 -331 -148 -331 -331z" />
    <glyph glyph-name="C.alt1" horiz-adv-x="711" 
d="M681 619l-28 -28c-60 59 -142 95 -233 95c-92 0 -175 -38 -235 -98l496 -497c-67 -66 -159 -107 -261 -107c-205 0 -371 166 -371 371s166 371 371 371c102 0 194 -41 261 -107zM420 24c77 0 147 26 204 70l-465 465c-44 -56 -70 -127 -70 -204c0 -183 148 -331 331 -331
z" />
    <glyph glyph-name="C.alt2" horiz-adv-x="709" 
d="M681 619l-264 -264l264 -264c-67 -66 -159 -107 -261 -107c-205 0 -371 166 -371 371s166 371 371 371c102 0 194 -41 261 -107zM420 24c77 0 147 26 204 70l-234 234l-205 -206c60 -61 143 -98 235 -98zM420 686c-92 0 -175 -38 -235 -98l205 -206l234 234
c-57 44 -127 70 -204 70zM89 355c0 -78 26 -148 70 -205l204 205l-204 204c-44 -56 -70 -127 -70 -204z" />
    <glyph glyph-name="C.alt3" horiz-adv-x="722" 
d="M681 619l-28 -28h-465c-61 -60 -99 -144 -99 -236c0 -93 38 -176 99 -236h465l28 -28c-67 -66 -159 -107 -261 -107c-205 0 -371 166 -371 371s166 371 371 371c102 0 194 -41 261 -107zM420 686c-68 0 -131 -20 -183 -55h366c-52 34 -115 55 -183 55zM420 24
c68 0 131 20 183 55h-366c52 -35 115 -55 183 -55z" />
    <glyph glyph-name="C.alt4" horiz-adv-x="717" 
d="M681 619l-28 -28c-60 59 -142 95 -233 95c-76 0 -146 -26 -202 -69v-524c56 -43 126 -69 202 -69c91 0 173 36 233 95l28 -28c-67 -66 -159 -107 -261 -107c-205 0 -371 166 -371 371s166 371 371 371c102 0 194 -41 261 -107zM89 355c0 -88 34 -167 89 -226v452
c-55 -59 -89 -139 -89 -226z" />
    <glyph glyph-name="C.alt5" horiz-adv-x="711" 
d="M592 181l28 -28c-52 -51 -122 -83 -200 -83c-157 0 -285 128 -285 285s128 285 285 285c78 0 148 -31 200 -82l-28 -29c-44 44 -105 71 -172 71c-135 0 -245 -110 -245 -245s110 -245 245 -245c67 0 128 27 172 71zM681 619l-28 -28c-60 59 -142 95 -233 95
c-183 0 -331 -148 -331 -331s148 -331 331 -331c91 0 173 36 233 95l28 -28c-67 -66 -159 -107 -261 -107c-205 0 -371 166 -371 371s166 371 371 371c102 0 194 -41 261 -107z" />
    <glyph glyph-name="C.alt6" horiz-adv-x="715" 
d="M380 355c0 22 18 40 40 40s40 -18 40 -40s-18 -40 -40 -40s-40 18 -40 40zM681 619l-28 -28c-60 59 -142 95 -233 95c-183 0 -331 -148 -331 -331s148 -331 331 -331c91 0 173 36 233 95l28 -28c-67 -66 -159 -107 -261 -107c-205 0 -371 166 -371 371s166 371 371 371
c102 0 194 -41 261 -107z" />
    <glyph glyph-name="C.alt7" horiz-adv-x="709" 
d="M681 91c-67 -66 -159 -107 -261 -107c-205 0 -371 166 -371 371s166 371 371 371c102 0 194 -41 261 -107l-263 -264zM89 355c0 -78 26 -148 70 -205l465 466c-57 44 -127 70 -204 70c-183 0 -331 -148 -331 -331zM420 24c77 0 147 26 204 70l-234 233l-205 -205
c60 -61 143 -98 235 -98z" />
    <glyph glyph-name="C.alt8" horiz-adv-x="709" 
d="M681 619l-263 -264l263 -264c-67 -66 -159 -107 -261 -107c-205 0 -371 166 -371 371s166 371 371 371c102 0 194 -41 261 -107zM420 24c77 0 147 26 204 70l-465 465c-44 -56 -70 -127 -70 -204c0 -183 148 -331 331 -331zM420 686c-92 0 -175 -38 -235 -98l205 -206
l234 234c-57 44 -127 70 -204 70z" />
    <glyph glyph-name="C.alt9" horiz-adv-x="711" 
d="M681 619l-28 -28c-56 54 -130 89 -213 94v-661c83 5 157 40 213 95l28 -28c-67 -66 -159 -107 -261 -107c-205 0 -371 166 -371 371s166 371 371 371c102 0 194 -41 261 -107zM89 355c0 -176 137 -320 311 -331v661c-174 -10 -311 -154 -311 -330z" />
    <glyph glyph-name="Cacute" unicode="&#x106;" horiz-adv-x="717" 
d="M681 91c-67 -66 -159 -107 -261 -107c-205 0 -371 166 -371 371s166 371 371 371c102 0 194 -41 261 -107l-28 -28c-60 59 -142 95 -233 95c-183 0 -331 -148 -331 -331s148 -331 331 -331c91 0 173 36 233 95zM297 770l-20 34l156 90l20 -34z" />
    <glyph glyph-name="Ccaron" unicode="&#x10c;" horiz-adv-x="717" 
d="M681 91l-28 28c-60 -59 -142 -95 -233 -95c-183 0 -331 148 -331 331s148 331 331 331c91 0 173 -36 233 -95l28 28c-67 66 -159 107 -261 107c-205 0 -371 -166 -371 -371s166 -371 371 -371c102 0 194 41 261 107zM518 894l25 -31l-123 -93l-123 93l25 31l98 -74z" />
    <glyph glyph-name="Ccedilla" unicode="&#xc7;" horiz-adv-x="717" 
d="M653 119l28 -28c-64 -63 -150 -103 -246 -107v-24h60v-30c0 -50 -40 -90 -90 -90v30c33 0 60 27 60 60h-60v55c-198 8 -356 170 -356 370c0 205 166 371 371 371c102 0 194 -41 261 -107l-28 -28c-60 59 -142 95 -233 95c-183 0 -331 -148 -331 -331s148 -331 331 -331
c91 0 173 36 233 95z" />
    <glyph glyph-name="D" unicode="D" horiz-adv-x="760" 
d="M100 0v710h255c196 0 355 -159 355 -355s-159 -355 -355 -355h-255zM140 670v-630h215c174 0 315 141 315 315s-141 315 -315 315h-215z" />
    <glyph glyph-name="D.alt" horiz-adv-x="760" 
d="M355 0h-255v710h255c196 0 355 -159 355 -355s-159 -355 -355 -355zM670 355c0 174 -141 315 -315 315h-135v-630h135c174 0 315 141 315 315zM140 670v-630h40v630h-40z" />
    <glyph glyph-name="D.alt1" horiz-adv-x="760" 
d="M100 670v40h255c196 0 355 -159 355 -355s-159 -355 -355 -355h-255v198l409 431c-45 26 -98 41 -154 41h-255zM670 355c0 103 -50 195 -128 253l-402 -426v-142h215c174 0 315 141 315 315z" />
    <glyph glyph-name="D.alt2" horiz-adv-x="760" 
d="M100 40h255c174 0 315 141 315 315s-141 315 -315 315h-255v40h255c196 0 355 -159 355 -355s-159 -355 -355 -355h-255v40z" />
    <glyph glyph-name="D.alt3" horiz-adv-x="760" 
d="M100 0v710h255c196 0 355 -159 355 -355s-159 -355 -355 -355h-255zM140 670v-295h529c-11 164 -147 295 -314 295h-215zM140 335v-295h215c167 0 303 130 314 295h-529z" />
    <glyph glyph-name="D.alt4" horiz-adv-x="760" 
d="M100 0v710h255c196 0 355 -159 355 -355s-159 -355 -355 -355h-255zM140 670v-630h140v630h-140zM460 652c-33 11 -68 18 -105 18h-35v-630h35c37 0 72 6 105 18v594zM670 355c0 122 -69 227 -170 280v-560c101 52 170 158 170 280z" />
    <glyph glyph-name="D.alt5" horiz-adv-x="760" 
d="M100 0v710h255c196 0 355 -159 355 -355s-159 -355 -355 -355h-255zM140 670v-70l440 -465c55 57 90 134 90 220c0 174 -141 315 -315 315h-215zM355 40c74 0 142 25 196 68l-411 434v-502h215z" />
    <glyph glyph-name="D.alt6" horiz-adv-x="760" 
d="M100 0v710h255c196 0 355 -159 355 -355s-159 -355 -355 -355h-255zM140 445v-180h517c8 28 13 58 13 90c0 31 -5 61 -13 90h-517zM140 670v-185h502c-50 109 -160 185 -287 185h-215zM140 225v-185h215c127 0 237 76 287 185h-502z" />
    <glyph glyph-name="D.alt7" horiz-adv-x="760" 
d="M100 0v710h255c196 0 355 -159 355 -355s-159 -355 -355 -355h-255zM355 40c174 0 315 141 315 315s-141 315 -315 315h-33c112 -60 189 -178 189 -315s-77 -256 -189 -315h33zM316 355c0 -131 -35 -246 -88 -308c139 32 243 158 243 308s-104 276 -243 307
c53 -61 88 -176 88 -307zM276 355c0 174 -61 315 -136 315v-630c75 0 136 141 136 315z" />
    <glyph glyph-name="D.alt8" horiz-adv-x="760" 
d="M100 0v710h255c196 0 355 -159 355 -355s-159 -355 -355 -355h-255zM670 355c0 85 -34 163 -90 220l-440 -465v-70h215c174 0 315 141 315 315zM140 670v-503l411 434c-54 43 -122 69 -196 69h-215z" />
    <glyph glyph-name="D.alt9" horiz-adv-x="760" 
d="M140 670v-143l402 -425c78 57 128 149 128 253c0 174 -141 315 -315 315h-215zM100 40h255c56 0 109 15 154 40l-409 432v198h255c196 0 355 -159 355 -355s-159 -355 -355 -355h-255v40z" />
    <glyph glyph-name="Dcaron" unicode="&#x10e;" horiz-adv-x="760" 
d="M100 0v710h255c196 0 355 -159 355 -355s-159 -355 -355 -355h-255zM140 670v-630h215c174 0 315 141 315 315s-141 315 -315 315h-215zM413 894l25 -31l-123 -93l-123 93l25 31l98 -74z" />
    <glyph glyph-name="Dcroat" unicode="&#x110;" horiz-adv-x="767" 
d="M7 335v40h100v335h255c196 0 355 -159 355 -355s-159 -355 -355 -355h-255v335h-100zM147 335v-295h215c174 0 315 141 315 315s-141 315 -315 315h-215v-295h100v-40h-100z" />
    <glyph glyph-name="E" unicode="E" horiz-adv-x="646" 
d="M100 710h490v-40h-450v-295h420v-40h-420v-295h450v-40h-490v710z" />
    <glyph glyph-name="E.alt" horiz-adv-x="646" 
d="M100 710h490v-40h-450v-255h420v-40h-420v-40h420v-40h-420v-255h450v-40h-490v710z" />
    <glyph glyph-name="E.alt1" horiz-adv-x="646" 
d="M100 710h490v-40h-370v-295h340v-40h-340v-295h370v-40h-490v710zM140 375h40v295h-40v-295zM140 40h40v295h-40v-295z" />
    <glyph glyph-name="E.alt10" horiz-adv-x="647" 
d="M260 160v175h-120v-295h450v-40h-490v710h490v-40h-450v-295h120v175h300v-40h-260v-135h260v-40h-260v-135h260v-40h-300z" />
    <glyph glyph-name="E.alt11" horiz-adv-x="625" 
d="M590 0h-490v710h490v-40h-422l298 -315l-298 -315h422v-40zM140 68l272 287l-272 287v-574z" />
    <glyph glyph-name="E.alt12" horiz-adv-x="663" 
d="M100 200v310h40v-135h450v-40h-450v-135h-40zM550 535v135h-450v40h490v-175h-40zM550 40v135h40v-175h-490v40h450z" />
    <glyph glyph-name="E.alt2" horiz-adv-x="644" 
d="M100 40h490v-40h-490v40zM100 710h490v-40h-490v40zM100 375h460v-40h-460v40z" />
    <glyph glyph-name="E.alt3" horiz-adv-x="640" 
d="M100 0v710h490v-40h-422l279 -295h113v-40h-392l279 -295h143v-40h-490zM140 375h253l-253 267v-267zM140 40h253l-253 267v-267z" />
    <glyph glyph-name="E.alt4" horiz-adv-x="635" 
d="M560 335l-280 -295h310v-40h-490v710h490v-40l-280 -295h250v-40zM140 375h116l279 295h-395v-295zM140 40h86l279 295h-365v-295z" />
    <glyph glyph-name="E.alt5" horiz-adv-x="646" 
d="M100 40h139l-139 147v188h139l-139 147v188h490v-40h-450v-133l153 -162h267v-40h-420v-133l153 -162h297v-40h-490v40z" />
    <glyph glyph-name="E.alt6" horiz-adv-x="648" 
d="M100 710h490v-40h-450v-185h420v-40h-420v-180h420v-40h-420v-185h450v-40h-490v710z" />
    <glyph glyph-name="E.alt7" horiz-adv-x="645" 
d="M100 375h158l-158 167v168h490v-40h-450v-113l172 -182h248v-40h-247l-173 -184v-111h450v-40h-490v167l159 168h-159v40z" />
    <glyph glyph-name="E.alt8" horiz-adv-x="638" 
d="M100 710h490v-40h-230v-295h200v-40h-200v-295h230v-40h-490v710zM140 375h180v295h-180v-295zM140 40h180v295h-180v-295z" />
    <glyph glyph-name="E.alt9" horiz-adv-x="643" 
d="M100 375h279l-279 295v40h490v-40h-436l280 -295h126v-40h-420v-295h450v-40h-490v375z" />
    <glyph glyph-name="Eacute" unicode="&#xc9;" horiz-adv-x="646" 
d="M100 710h490v-40h-450v-295h420v-40h-420v-295h450v-40h-490v710zM277 770l-20 34l156 90l20 -34z" />
    <glyph glyph-name="Ecaron" unicode="&#x11a;" horiz-adv-x="646" 
d="M100 710h490v-40h-450v-295h420v-40h-420v-295h450v-40h-490v710zM443 894l25 -31l-123 -93l-123 93l25 31l98 -74z" />
    <glyph glyph-name="Ecircumflex" unicode="&#xca;" horiz-adv-x="646" 
d="M100 710h490v-40h-450v-295h420v-40h-420v-295h450v-40h-490v710zM247 770l-25 31l123 93l123 -93l-25 -31l-98 74z" />
    <glyph glyph-name="Edieresis" unicode="&#xcb;" horiz-adv-x="646" 
d="M100 710h490v-40h-450v-295h420v-40h-420v-295h450v-40h-490v710zM250 774v60h50v-60h-50zM390 774v60h50v-60h-50z" />
    <glyph glyph-name="Edotaccent" unicode="&#x116;" horiz-adv-x="646" 
d="M100 710h490v-40h-450v-295h420v-40h-420v-295h450v-40h-490v710zM320 774v60h50v-60h-50z" />
    <glyph glyph-name="Egrave" unicode="&#xc8;" horiz-adv-x="646" 
d="M100 710h490v-40h-450v-295h420v-40h-420v-295h450v-40h-490v710zM433 804l-20 -34l-156 90l20 34z" />
    <glyph glyph-name="Emacron" unicode="&#x112;" horiz-adv-x="646" 
d="M100 710h490v-40h-450v-295h420v-40h-420v-295h450v-40h-490v710zM240 794v40h210v-40h-210z" />
    <glyph glyph-name="Eng" unicode="&#x14a;" horiz-adv-x="776" 
d="M314 -132l29 29c29 -43 77 -72 133 -72c88 0 160 72 160 160v15l-496 644v-644h-40v710h40l496 -644v644h40v-725c0 -110 -90 -200 -200 -200c-66 0 -126 33 -162 83z" />
    <glyph glyph-name="Eogonek" unicode="&#x118;" horiz-adv-x="646" 
d="M624 -185l20 -21c-17 -19 -50 -44 -90 -44c-50 0 -90 40 -90 90c0 107 96 160 96 160h-460v710h490v-40h-450v-295h420v-40h-420v-295h450v-40s-96 -64 -96 -160c0 -33 27 -60 60 -60c29 0 52 15 70 35z" />
    <glyph glyph-name="Eth" unicode="&#xd0;" horiz-adv-x="776" 
d="M-4 335v40h120v335h255c196 0 355 -159 355 -355s-159 -355 -355 -355h-255v335h-120zM156 670v-295h120v-40h-120v-295h215c174 0 315 141 315 315s-141 315 -315 315h-215z" />
    <glyph glyph-name="Euro" unicode="&#x20ac;" horiz-adv-x="659" 
d="M46 435v40h60c34 144 130 251 282 251c95 0 168 -46 218 -112l-28 -28c-43 58 -106 100 -190 100c-130 0 -210 -89 -241 -211h303v-40h-311c-4 -26 -6 -53 -6 -80c0 -28 2 -55 6 -80h311v-40h-303c31 -122 111 -211 241 -211c84 0 147 42 190 100l28 -28
c-50 -65 -123 -112 -218 -112c-152 0 -248 106 -282 251h-60v40h53c-4 26 -6 52 -6 80c0 27 2 54 6 80h-53z" />
    <glyph glyph-name="F" unicode="F" horiz-adv-x="641" 
d="M100 710h490v-40h-450v-295h420v-40h-420v-335h-40v710z" />
    <glyph glyph-name="F.alt" horiz-adv-x="641" 
d="M180 0v335h-40v-335h-40v710h490v-40h-370v-295h340v-40h-340v-335h-40zM140 375h40v295h-40v-295z" />
    <glyph glyph-name="F.alt1" horiz-adv-x="640" 
d="M140 710h450v-40h-450v-127h420v-40h-420v-128h420v-40h-420v-335h-40v710h40z" />
    <glyph glyph-name="F.alt2" horiz-adv-x="635" 
d="M140 710h450v-40h-436l280 -295h126v-40h-420v-335h-40v375h279l-279 295v40h40z" />
    <glyph glyph-name="F.alt3" horiz-adv-x="633" 
d="M560 335h-420v-335h-40v710h490v-40h-230v-295h200v-40zM140 375h180v295h-180v-295z" />
    <glyph glyph-name="F.alt4" horiz-adv-x="632" 
d="M100 0v710h490v-40h-145l-279 -295h394v-40h-103l-317 -335h-40zM140 335v-278l263 278h-263zM140 670v-265l251 265h-251z" />
    <glyph glyph-name="F.alt5" horiz-adv-x="637" 
d="M100 375h460v-40h-420v-335h-40v375zM100 710h490v-40h-490v40z" />
    <glyph glyph-name="F.alt6" horiz-adv-x="639" 
d="M100 710h490v-40h-490v40zM100 375h460v-40h-460v40z" />
    <glyph glyph-name="F.alt7" horiz-adv-x="639" 
d="M100 0v375h139l-139 147v188h40v-173l153 -162h267v-40h-420v-335h-40zM140 710h450v-40h-450v40z" />
    <glyph glyph-name="F.alt8" horiz-adv-x="636" 
d="M270 160v175h-130v-335h-40v710h490v-40h-450v-295h130v175h290v-40h-250v-135h250v-40h-250v-175h-40z" />
    <glyph glyph-name="F.alt9" horiz-adv-x="610" 
d="M100 0v710h490v-40h-422l298 -315l-326 -355h-40zM140 642v-584l272 297z" />
    <glyph glyph-name="G" unicode="G" horiz-adv-x="753" 
d="M341 366h347v-366h-40v62c-63 -49 -142 -78 -228 -78c-205 0 -371 166 -371 371s166 371 371 371c96 0 183 -36 249 -96l-27 -29c-59 53 -136 85 -222 85c-183 0 -331 -148 -331 -331s148 -331 331 -331c88 0 168 34 228 90v212h-307v40z" />
    <glyph glyph-name="G.alt" horiz-adv-x="753" 
d="M642 601c-59 53 -136 85 -222 85c-13 0 -26 -1 -39 -3v-317h307v-366h-40v62c-63 -49 -142 -78 -228 -78c-205 0 -371 166 -371 371s166 371 371 371c96 0 183 -36 249 -96zM341 676c-145 -35 -252 -166 -252 -321c0 -156 107 -286 252 -322v643zM381 326v-300
c13 -1 26 -2 39 -2c88 0 168 34 228 90v212h-267z" />
    <glyph glyph-name="G.alt1" horiz-adv-x="753" 
d="M642 601c-59 53 -136 85 -222 85c-183 0 -331 -148 -331 -331s148 -331 331 -331c88 0 168 34 228 90v132h-307v40h307v40h-307v40h347v-366h-40v62c-63 -49 -142 -78 -228 -78c-205 0 -371 166 -371 371s166 371 371 371c96 0 183 -36 249 -96z" />
    <glyph glyph-name="G.alt10" horiz-adv-x="753" 
d="M642 601c-59 53 -136 85 -222 85c-13 0 -26 -1 -39 -3v-317h307v-366h-40v62c-63 -49 -142 -78 -228 -78c-205 0 -371 166 -371 371s166 371 371 371c96 0 183 -36 249 -96zM341 676c-145 -35 -252 -166 -252 -321c0 -183 148 -331 331 -331c88 0 168 34 228 90v212h-307
v350z" />
    <glyph glyph-name="G.alt2" horiz-adv-x="753" 
d="M669 630l-244 -264h263v-366h-40v62c-63 -49 -142 -78 -228 -78c-205 0 -371 166 -371 371s166 371 371 371c96 0 183 -36 249 -96zM89 355c0 -82 29 -156 78 -214l444 485c-54 38 -120 60 -191 60c-183 0 -331 -148 -331 -331zM420 24c88 0 168 34 228 90v212h-260
l-195 -212c59 -56 139 -90 227 -90z" />
    <glyph glyph-name="G.alt3" horiz-adv-x="753" 
d="M341 366h347v-366h-40v62c-63 -49 -142 -78 -228 -78c-205 0 -371 166 -371 371s166 371 371 371c96 0 183 -36 249 -96l-27 -29c-59 53 -136 85 -222 85c-183 0 -331 -148 -331 -331c0 -156 107 -286 252 -322v333zM420 24c88 0 168 34 228 90v212h-267v-300
c13 -1 26 -2 39 -2z" />
    <glyph glyph-name="G.alt4" horiz-adv-x="748" 
d="M341 366h347v-267c-68 -71 -162 -115 -268 -115c-205 0 -371 166 -371 371s166 371 371 371c96 0 183 -36 249 -96l-27 -29c-59 53 -136 85 -222 85c-183 0 -331 -148 -331 -331s148 -331 331 -331c88 0 169 35 228 91v211h-307v40z" />
    <glyph glyph-name="G.alt5" horiz-adv-x="753" 
d="M642 601c-59 53 -136 85 -222 85c-180 0 -325 -142 -331 -320h599v-366h-40v62c-63 -49 -142 -78 -228 -78c-205 0 -371 166 -371 371s166 371 371 371c96 0 183 -36 249 -96zM420 24c88 0 168 34 228 90v212h-558c14 -170 157 -302 330 -302z" />
    <glyph glyph-name="G.alt7" horiz-adv-x="753" 
d="M341 366h347v-366h-40v62c-63 -49 -142 -78 -228 -78c-205 0 -371 166 -371 371s166 371 371 371c96 0 183 -36 249 -96l-27 -29c-59 53 -136 85 -222 85c-183 0 -331 -148 -331 -331c0 -149 98 -275 233 -316l271 287h-252v40zM648 326l-282 -298c17 -3 35 -4 54 -4
c88 0 168 34 228 90v212z" />
    <glyph glyph-name="G.alt8" horiz-adv-x="754" 
d="M342 33v-41c-167 36 -292 185 -292 363s125 327 292 363v-41c-145 -35 -252 -166 -252 -322s107 -287 252 -322zM342 366h347v-366h-40v326h-307v40z" />
    <glyph glyph-name="G.alt9" horiz-adv-x="753" 
d="M50 326c-1 10 -1 19 -1 29c0 205 166 371 371 371c96 0 183 -36 249 -96l-27 -29c-59 53 -136 85 -222 85c-183 0 -331 -148 -331 -331c0 -10 0 -19 1 -29h-40zM341 366h347v-366h-40v326h-307v40z" />
    <glyph glyph-name="H" unicode="H" horiz-adv-x="776" 
d="M636 0v335h-496v-335h-40v710h40v-335h496v335h40v-710h-40z" />
    <glyph glyph-name="H.alt" horiz-adv-x="776" 
d="M636 0v335h-228v-335h-40v335h-228v-335h-40v710h40v-335h228v335h40v-335h228v335h40v-710h-40z" />
    <glyph glyph-name="H.alt1" horiz-adv-x="776" 
d="M636 0v335h-496v-335h-40v710h40v-335h536v-375h-40z" />
    <glyph glyph-name="H.alt10" horiz-adv-x="776" 
d="M636 0v195l-124 131l-124 -131l-124 131l-124 -131v-195h-40v710h40v-195l124 -131l124 131l124 -131l124 131v195h40v-710h-40zM291 355l97 -102l96 102l-96 101zM237 355l-97 102v-205zM539 355l97 -103v205z" />
    <glyph glyph-name="H.alt11" horiz-adv-x="776" 
d="M636 0v208c-50 -84 -143 -141 -248 -141c-106 0 -198 57 -248 141v-208h-40v710h40v-209c50 85 142 142 248 142c105 0 198 -57 248 -142v209h40v-710h-40zM388 107c130 0 237 100 247 228h-494c10 -128 116 -228 247 -228zM388 603c-131 0 -237 -101 -247 -228h494
c-10 127 -117 228 -247 228z" />
    <glyph glyph-name="H.alt2" horiz-adv-x="776" 
d="M100 335v375h40v-335h496v335h40v-375h-576z" />
    <glyph glyph-name="H.alt3" horiz-adv-x="776" 
d="M636 0v285h-496v-285h-40v710h40v-285h496v285h40v-710h-40zM140 385v-60h496v60h-496z" />
    <glyph glyph-name="H.alt4" horiz-adv-x="776" 
d="M536 0v335h-296v-335h-40v335h-60v-335h-40v710h40v-335h60v335h40v-335h296v335h40v-335h60v335h40v-710h-40v335h-60v-335h-40z" />
    <glyph glyph-name="H.alt5" horiz-adv-x="776" 
d="M676 710v-710h-40v335h-179l-317 -335h-40v710h40l317 -335h179v335h40zM402 375l-262 277v-277h262zM402 335h-262v-278z" />
    <glyph glyph-name="H.alt6" horiz-adv-x="776" 
d="M636 0v215h-496v-215h-40v710h40v-215h496v215h40v-710h-40zM140 455v-200h496v200h-496z" />
    <glyph glyph-name="H.alt7" horiz-adv-x="776" 
d="M100 0v710h40v-335h179l317 335h40v-710h-40l-317 335h-179v-335h-40zM374 375h262v277zM374 335l262 -278v278h-262z" />
    <glyph glyph-name="H.alt8" horiz-adv-x="776" 
d="M348 355c0 22 18 40 40 40s40 -18 40 -40s-18 -40 -40 -40s-40 18 -40 40zM100 0v710h40v-710h-40zM636 0v710h40v-710h-40z" />
    <glyph glyph-name="H.alt9" horiz-adv-x="776" 
d="M636 0v195l-248 261l-248 -261v-195h-40v710h40v-458l248 263l248 -263v458h40v-710h-40z" />
    <glyph glyph-name="I" unicode="I" horiz-adv-x="240" 
d="M100 0v710h40v-710h-40z" />
    <glyph glyph-name="I.alt" horiz-adv-x="252" 
d="M146 670v-630h40v-40h-120v40h40v630h-40v40h120v-40h-40z" />
    <glyph glyph-name="I.alt1" horiz-adv-x="332" 
d="M226 670v-630h40v-40h-80v710h80v-40h-40zM66 0v40h40v630h-40v40h80v-710h-80z" />
    <glyph glyph-name="I.alt2" horiz-adv-x="244" 
d="M42 335v40h60v335h40v-335h60v-40h-60v-335h-40v335h-60z" />
    <glyph glyph-name="I.alt3" horiz-adv-x="240" 
d="M100 395v315h40v-315h-40zM100 0v315h40v-315h-40z" />
    <glyph glyph-name="I.alt4" horiz-adv-x="320" 
d="M100 0v710h120v-710h-120zM140 670v-630h40v630h-40z" />
    <glyph glyph-name="I.alt5" horiz-adv-x="254" 
d="M47 375v40h60v295h40v-295h60v-40h-160zM47 295v40h160v-40h-60v-295h-40v295h-60z" />
    <glyph glyph-name="I.alt6" horiz-adv-x="386" 
d="M213 670v-630h140v-40h-320v40h140v630h-140v40h320v-40h-140z" />
    <glyph glyph-name="Iacute" unicode="&#xcd;" horiz-adv-x="240" 
d="M100 0v710h40v-710h-40zM52 770l-20 34l156 90l20 -34z" />
    <glyph glyph-name="Icircumflex" unicode="&#xce;" horiz-adv-x="240" 
d="M100 0v710h40v-710h-40zM22 770l-25 31l123 93l123 -93l-25 -31l-98 74z" />
    <glyph glyph-name="Idieresis" unicode="&#xcf;" horiz-adv-x="240" 
d="M100 0v710h40v-710h-40zM25 774v60h50v-60h-50zM165 774v60h50v-60h-50z" />
    <glyph glyph-name="Igrave" unicode="&#xcc;" horiz-adv-x="240" 
d="M100 0v710h40v-710h-40zM208 804l-20 -34l-156 90l20 34z" />
    <glyph glyph-name="Imacron" unicode="&#x12a;" horiz-adv-x="240" 
d="M100 0v710h40v-710h-40zM15 794v40h210v-40h-210z" />
    <glyph glyph-name="Iogonek" unicode="&#x12e;" horiz-adv-x="240" 
d="M100 0v710h40v-710s-96 -64 -96 -160c0 -33 27 -60 60 -60c29 0 52 15 70 35l20 -21c-17 -19 -50 -44 -90 -44c-50 0 -90 40 -90 90c0 107 96 160 96 160h-10z" />
    <glyph glyph-name="Itilde" unicode="&#x128;" horiz-adv-x="240" 
d="M100 0v710h40v-710h-40zM184 832l23 23l28 -28l-23 -23c-35 -35 -71 -35 -106 0c-18 18 -32 18 -50 0l-23 -23l-28 28l23 23c35 35 71 35 106 0c18 -18 32 -18 50 0z" />
    <glyph glyph-name="J" unicode="J" horiz-adv-x="473" 
d="M18 67l29 29c29 -43 77 -72 133 -72c88 0 160 72 160 160v526h40v-526c0 -110 -90 -200 -200 -200c-66 0 -126 33 -162 83z" />
    <glyph glyph-name="J.alt" horiz-adv-x="484" 
d="M280 295v40h160v-40h-60v-111c0 -110 -90 -200 -200 -200c-66 0 -126 33 -162 83l29 29c29 -43 77 -72 133 -72c88 0 160 72 160 160v111h-60zM280 375v40h60v295h40v-295h60v-40h-160z" />
    <glyph glyph-name="J.alt1" horiz-adv-x="481" 
d="M26 67l29 29c29 -43 77 -72 133 -72c88 0 160 72 160 160v486h-294v40h334v-526c0 -110 -90 -200 -200 -200c-66 0 -126 33 -162 83z" />
    <glyph glyph-name="J.alt2" horiz-adv-x="474" 
d="M19 67l29 29c29 -43 77 -72 133 -72c29 0 56 8 80 21v665h40v-632c25 28 40 65 40 106v526h40v-526c0 -110 -90 -200 -200 -200c-66 0 -126 33 -162 83z" />
    <glyph glyph-name="J.alt3" horiz-adv-x="467" 
d="M12 67l322 323v320h40v-526c0 -110 -90 -200 -200 -200c-66 0 -126 33 -162 83zM334 184v152l-269 -269c29 -27 66 -43 109 -43c88 0 160 72 160 160z" />
    <glyph glyph-name="J.alt4" horiz-adv-x="304" 
d="M11 -16v40c88 0 160 72 160 160v526h40v-526c0 -110 -90 -200 -200 -200z" />
    <glyph glyph-name="K" unicode="K" horiz-adv-x="652" 
d="M590 0l-273 381l-177 -180v-201h-40v710h40v-451l444 451h55l-294 -300l294 -410h-49z" />
    <glyph glyph-name="K.alt" horiz-adv-x="656" 
d="M590 0l-244 335h-206v-335h-40v710h40v-335h206l244 335h49l-258 -355l258 -355h-49z" />
    <glyph glyph-name="K.alt1" horiz-adv-x="652" 
d="M100 0v710h539l-294 -300l294 -410h-539zM140 201v-161h421l-244 341zM140 670v-411l404 411h-404z" />
    <glyph glyph-name="K.alt10" horiz-adv-x="711" 
d="M599 0v180l-205 155h-254v-335h-40v710h40v-335h254l205 155v180h40v-200l-205 -155l205 -155v-200h-40z" />
    <glyph glyph-name="K.alt11" horiz-adv-x="457" 
d="M395 0l-296 415l290 295h55l-293 -300l293 -410h-49z" />
    <glyph glyph-name="K.alt2" horiz-adv-x="645" 
d="M584 0l-321 326l-123 -125v-201h-40v710h40v-201l123 -125l321 326h55l-348 -355l348 -355h-55zM140 259l94 96l-94 96v-192z" />
    <glyph glyph-name="K.alt3" horiz-adv-x="656" 
d="M332 355l258 355h49l-258 -355l258 -355h-49zM100 0v710h40v-710h-40z" />
    <glyph glyph-name="K.alt4" horiz-adv-x="656" 
d="M100 0v710h539l-258 -355l258 -355h-539zM140 670v-630h421l-229 315l229 315h-421z" />
    <glyph glyph-name="K.alt5" horiz-adv-x="652" 
d="M590 0l-273 382l-97 -99v-283h-40v242l-40 -41v-201h-40v710h40v-451l40 40v411h40v-370l364 370h55l-294 -299l294 -411h-49z" />
    <glyph glyph-name="K.alt6" horiz-adv-x="656" 
d="M224 355l258 355h49l-258 -355l258 -355h-49zM590 0l-258 355l258 355h49l-258 -355l258 -355h-49zM100 0v710h40v-710h-40z" />
    <glyph glyph-name="K.alt7" horiz-adv-x="739" 
d="M100 0v710h40v-451l444 451h55v-710h-49l-273 381l-177 -180v-201h-40zM345 410l254 -354v613z" />
    <glyph glyph-name="K.alt8" horiz-adv-x="656" 
d="M100 0v710h539l-258 -355l258 -355h-539zM140 335v-295h421l-215 295h-206zM140 670v-295h206l215 295h-421z" />
    <glyph glyph-name="K.alt9" horiz-adv-x="654" 
d="M587 0l-244 289l-203 -289h-40v710h40v-639l451 639h48l-272 -386l272 -324h-52z" />
    <glyph glyph-name="L" unicode="L" horiz-adv-x="617" 
d="M100 0v710h40v-670h460v-40h-500z" />
    <glyph glyph-name="L.alt" horiz-adv-x="616" 
d="M100 0v710h40v-670h40v670h40v-670h380v-40h-500z" />
    <glyph glyph-name="L.alt1" horiz-adv-x="640" 
d="M100 0v710h40v-590h460v-40h-460v-40h460v-40h-500z" />
    <glyph glyph-name="L.alt2" horiz-adv-x="640" 
d="M100 0v710h40v-590h40v590h40v-590h380v-40h-380v-40h380v-40h-500zM140 40h40v40h-40v-40z" />
    <glyph glyph-name="L.alt3" horiz-adv-x="590" 
d="M100 0v710h40v-184l460 -486v-40h-500zM140 40h406l-406 428v-428z" />
    <glyph glyph-name="L.alt4" horiz-adv-x="614" 
d="M100 0v710h40v-670h190v670h40v-670h230v-40h-500z" />
    <glyph glyph-name="L.alt5" horiz-adv-x="626" 
d="M560 40v80h40v-120h-500v710h120v-40h-80v-630h420z" />
    <glyph glyph-name="L.alt6" horiz-adv-x="650" 
d="M100 0v710h40v-670h460v-40h-500zM300 710h40v-470h260v-40h-300v510z" />
    <glyph glyph-name="Lacute" unicode="&#x139;" horiz-adv-x="617" 
d="M100 0v710h40v-670h460v-40h-500zM100 770l-20 34l156 90l20 -34z" />
    <glyph glyph-name="Lcaron" unicode="&#x13d;" horiz-adv-x="617" 
d="M100 0v710h40v-670h460v-40h-500zM220 720v70h46v-94c0 -25 -21 -46 -46 -46v30c9 0 16 7 16 16v24h-16z" />
    <glyph glyph-name="Lslash" unicode="&#x141;" horiz-adv-x="627" 
d="M30 223v44l80 40v403h40v-383l240 120v-44l-240 -120v-243h460v-40h-500v263z" />
    <glyph glyph-name="M" unicode="M" horiz-adv-x="906" 
d="M431 0l-291 616v-616h-40v710h40l313 -666l313 666h40v-710h-40v616l-291 -616h-44z" />
    <glyph glyph-name="M.alt" horiz-adv-x="906" 
d="M453 227l-313 417v-644h-40v710h40l313 -417l313 417h40v-710h-40v644z" />
    <glyph glyph-name="M.alt1" horiz-adv-x="906" 
d="M140 710l313 -417l313 417h40v-710h-706v710h40zM453 227l-313 417v-604h626v604z" />
    <glyph glyph-name="M.alt10" horiz-adv-x="906" 
d="M140 710l179 -381l180 381h44l-202 -427l112 -239l313 666h40v-710h-40v616l-291 -616h-44l-291 616v-616h-40v710h40z" />
    <glyph glyph-name="M.alt11" horiz-adv-x="906" 
d="M140 710l293 -623v623h40v-623l293 623h40v-710h-40v616l-291 -616h-44l-291 616v-616h-40v710h40z" />
    <glyph glyph-name="M.alt12" horiz-adv-x="906" 
d="M100 0v240h40v-240h-40zM766 0v710h40v-710h-40zM144 710l330 -710h-43l-331 710h44z" />
    <glyph glyph-name="M.alt13" horiz-adv-x="906" 
d="M766 0v644l-288 -384l84 -112v-40h-218v40l84 112l-288 384v-644h-40v710h40l313 -417l313 417h40v-710h-40zM394 148h118l-59 78z" />
    <glyph glyph-name="M.alt14" horiz-adv-x="906" 
d="M766 0v220h-626v-220h-40v710h40l313 -417l313 417h40v-710h-40zM428 260l-288 384v-384h288zM766 260v384l-288 -384h288z" />
    <glyph glyph-name="M.alt15" horiz-adv-x="966" 
d="M646 710l308 -710h-44l-290 668l-115 -265l175 -403h-44l-153 353l-153 -353h-44l175 403l-115 265l-290 -668h-44l308 710h52l111 -256l111 256h52z" />
    <glyph glyph-name="M.alt16" horiz-adv-x="966" 
d="M372 710l111 -256l111 256h52l308 -710h-44l-290 668l-115 -265l175 -403h-394l175 403l-115 265l-290 -668h-44l308 710h52zM483 352l-136 -312h271z" />
    <glyph glyph-name="M.alt17" horiz-adv-x="906" 
d="M453 49l353 701v-750h-40v581l-313 -621l-313 621v-581h-40v750z" />
    <glyph glyph-name="M.alt2" horiz-adv-x="906" 
d="M766 0v652l-626 -652h-40v710h40l313 -326l313 326h40v-710h-40zM140 58l285 297l-285 297v-594z" />
    <glyph glyph-name="M.alt3" horiz-adv-x="906" 
d="M140 710l313 -326l313 326h40v-710h-40l-626 652v-652h-40v710h40zM481 355l285 -297v594z" />
    <glyph glyph-name="M.alt4" horiz-adv-x="906" 
d="M100 0v710h40l313 -666l313 666h40v-710h-706zM140 616v-576h272zM766 40v576l-272 -576h272z" />
    <glyph glyph-name="M.alt5" horiz-adv-x="906" 
d="M100 0v710h706v-710h-40v616l-291 -616h-44l-291 616v-616h-40zM159 670l294 -626l294 626h-588z" />
    <glyph glyph-name="M.alt6" horiz-adv-x="906" 
d="M100 0v710h706v-710h-706zM453 227l-313 417v-604h626v604zM170 670l283 -377l283 377h-566z" />
    <glyph glyph-name="M.alt7" horiz-adv-x="906" 
d="M453 227l-313 417v-484h-40v550h40l313 -417l313 417h40v-550h-40v484zM100 0v40h706v-40h-706z" />
    <glyph glyph-name="M.alt8" horiz-adv-x="906" 
d="M431 0l-151 320v-320h-40v404l-100 212v-616h-40v710h40l313 -666l313 666h40v-710h-40v616l-100 -212v-404h-40v319l-151 -319h-44z" />
    <glyph glyph-name="M.alt9" horiz-adv-x="906" 
d="M140 710l313 -666l112 239l-202 427h44l179 -381l180 381h40v-710h-40v616l-291 -616h-44l-291 616v-616h-40v710h40z" />
    <glyph glyph-name="N" unicode="N" horiz-adv-x="776" 
d="M636 0l-496 644v-644h-40v710h40l496 -644v644h40v-710h-40z" />
    <glyph glyph-name="N.alt" horiz-adv-x="776" 
d="M636 0l-248 322l-248 -322h-40v710h40l496 -644v644h40v-710h-40zM140 644v-578l222 289z" />
    <glyph glyph-name="N.alt1" horiz-adv-x="776" 
d="M636 0l-496 644v-644h-40v710h576v-710h-40zM636 66v604h-465z" />
    <glyph glyph-name="N.alt10" horiz-adv-x="776" 
d="M100 750l536 -676v636h40v-750l-536 675v-635h-40v750z" />
    <glyph glyph-name="N.alt2" horiz-adv-x="776" 
d="M100 0v710h40l496 -644v644h40v-710h-576zM140 644v-604h465z" />
    <glyph glyph-name="N.alt3" horiz-adv-x="776" 
d="M100 0v710h40l228 -296v296h308v-710h-40l-228 296v-296h-308zM140 644v-604h228v308zM636 66v604h-228v-308z" />
    <glyph glyph-name="N.alt4" horiz-adv-x="776" 
d="M140 710v-644l496 644h40v-710h-40v644l-496 -644h-40v710h40z" />
    <glyph glyph-name="N.alt5" horiz-adv-x="776" 
d="M636 0l-258 335h-238v-335h-40v710h40l258 -335h238v335h40v-710h-40zM636 66v269h-207zM140 644v-269h207z" />
    <glyph glyph-name="N.alt6" horiz-adv-x="776" 
d="M636 0v128l-496 524v-652h-40v710h40l496 -525v525h40v-710h-40z" />
    <glyph glyph-name="N.alt7" horiz-adv-x="776" 
d="M636 0l-496 524v-524h-40v710h40l496 -525v525h40v-710h-40zM636 128l-496 524v-70l496 -525v71z" />
    <glyph glyph-name="N.alt8" horiz-adv-x="776" 
d="M636 0v670h-496v-670h-40v710h576v-710h-40z" />
    <glyph glyph-name="N.alt9" horiz-adv-x="776" 
d="M636 0l-228 296v-296h-40v348l-228 296v-644h-40v710h40l228 -296v296h40v-348l228 -296v644h40v-710h-40z" />
    <glyph glyph-name="Nacute" unicode="&#x143;" horiz-adv-x="776" 
d="M636 0l-496 644v-644h-40v710h40l496 -644v644h40v-710h-40zM320 770l-20 34l156 90l20 -34z" />
    <glyph glyph-name="Ncaron" unicode="&#x147;" horiz-adv-x="776" 
d="M636 0l-496 644v-644h-40v710h40l496 -644v644h40v-710h-40zM486 894l25 -31l-123 -93l-123 93l25 31l98 -74z" />
    <glyph glyph-name="Ntilde" unicode="&#xd1;" horiz-adv-x="776" 
d="M636 0l-496 644v-644h-40v710h40l496 -644v644h40v-710h-40zM452 832l23 23l28 -28l-23 -23c-35 -35 -71 -35 -106 0c-18 18 -32 18 -50 0l-23 -23l-28 28l23 23c35 35 71 35 106 0c18 -18 32 -18 50 0z" />
    <glyph glyph-name="O" unicode="O" horiz-adv-x="840" 
d="M49 355c0 205 166 371 371 371s371 -166 371 -371s-166 -371 -371 -371s-371 166 -371 371zM89 355c0 -183 148 -331 331 -331s331 148 331 331s-148 331 -331 331s-331 -148 -331 -331z" />
    <glyph glyph-name="O.alt" horiz-adv-x="840" 
d="M380 355c0 22 18 40 40 40s40 -18 40 -40s-18 -40 -40 -40s-40 18 -40 40zM49 355c0 205 166 371 371 371s371 -166 371 -371s-166 -371 -371 -371s-371 166 -371 371zM89 355c0 -183 148 -331 331 -331s331 148 331 331s-148 331 -331 331s-331 -148 -331 -331z" />
    <glyph glyph-name="O.alt1" horiz-adv-x="840" 
d="M49 355c0 205 166 371 371 371s371 -166 371 -371s-166 -371 -371 -371s-371 166 -371 371zM420 686c-85 0 -161 -32 -220 -84l467 -467c52 59 84 135 84 220c0 183 -148 331 -331 331zM89 355c0 -183 148 -331 331 -331c84 0 161 31 219 83l-467 467
c-52 -58 -83 -135 -83 -219z" />
    <glyph glyph-name="O.alt2" horiz-adv-x="840" 
d="M49 355c0 205 166 371 371 371s371 -166 371 -371s-166 -371 -371 -371s-371 166 -371 371zM751 355c0 84 -32 161 -84 219l-467 -467c59 -52 135 -83 220 -83c183 0 331 148 331 331zM89 355c0 -85 31 -161 83 -220l467 467c-58 52 -135 84 -219 84
c-183 0 -331 -148 -331 -331z" />
    <glyph glyph-name="O.alt3" horiz-adv-x="840" 
d="M49 355c0 205 166 371 371 371s371 -166 371 -371s-166 -371 -371 -371s-371 166 -371 371zM751 355c0 84 -32 161 -84 219l-221 -221l220 -220c53 59 85 137 85 222zM420 686c-85 0 -163 -32 -222 -85l220 -220l221 221c-58 52 -135 84 -219 84zM420 24
c83 0 160 31 218 82l-220 219l-218 -218c59 -52 135 -83 220 -83zM89 355c0 -85 31 -161 83 -220l218 218l-219 220c-51 -58 -82 -135 -82 -218z" />
    <glyph glyph-name="O.alt4" horiz-adv-x="840" 
d="M49 355c0 205 166 371 371 371s371 -166 371 -371s-166 -371 -371 -371s-371 166 -371 371zM751 355c0 176 -138 320 -311 330v-661c173 11 311 155 311 331zM89 355c0 -176 137 -320 311 -331v661c-174 -10 -311 -154 -311 -330z" />
    <glyph glyph-name="O.alt5" horiz-adv-x="840" 
d="M49 355c0 205 166 371 371 371s371 -166 371 -371s-166 -371 -371 -371s-371 166 -371 371zM420 24c176 0 320 137 330 311h-661c11 -174 155 -311 331 -311zM420 686c-176 0 -320 -138 -331 -311h661c-10 173 -154 311 -330 311z" />
    <glyph glyph-name="O.alt6" horiz-adv-x="652" 
d="M76 0v40h500v-40h-500zM46 446c0 155 125 280 280 280s280 -125 280 -280s-125 -280 -280 -280s-280 125 -280 280zM86 446c0 -132 108 -240 240 -240s240 108 240 240s-108 240 -240 240s-240 -108 -240 -240z" />
    <glyph glyph-name="O.alt7" horiz-adv-x="840" 
d="M175 355c0 -135 110 -245 245 -245s245 110 245 245s-110 245 -245 245s-245 -110 -245 -245zM135 355c0 157 128 285 285 285s285 -128 285 -285s-128 -285 -285 -285s-285 128 -285 285zM49 355c0 205 166 371 371 371s371 -166 371 -371s-166 -371 -371 -371
s-371 166 -371 371zM89 355c0 -183 148 -331 331 -331s331 148 331 331s-148 331 -331 331s-331 -148 -331 -331z" />
    <glyph glyph-name="O.alt8" horiz-adv-x="1710" 
d="M415 0c-201 0 -365 154 -365 355s164 355 365 355h880c201 0 365 -154 365 -355s-164 -355 -365 -355h-880zM415 670c-179 0 -325 -136 -325 -315s146 -315 325 -315h880c179 0 325 136 325 315s-146 315 -325 315h-880z" />
    <glyph glyph-name="O.alt9" horiz-adv-x="728" 
d="M729 355l-365 -365l-365 365l365 365zM56 355l308 -308l308 308l-308 308z" />
    <glyph glyph-name="Oacute" unicode="&#xd3;" horiz-adv-x="840" 
d="M49 355c0 205 166 371 371 371s371 -166 371 -371s-166 -371 -371 -371s-371 166 -371 371zM89 355c0 -183 148 -331 331 -331s331 148 331 331s-148 331 -331 331s-331 -148 -331 -331zM352 770l-20 34l156 90l20 -34z" />
    <glyph glyph-name="Ocircumflex" unicode="&#xd4;" horiz-adv-x="840" 
d="M49 355c0 205 166 371 371 371s371 -166 371 -371s-166 -371 -371 -371s-371 166 -371 371zM89 355c0 -183 148 -331 331 -331s331 148 331 331s-148 331 -331 331s-331 -148 -331 -331zM322 770l-25 31l123 93l123 -93l-25 -31l-98 74z" />
    <glyph glyph-name="Odieresis" unicode="&#xd6;" horiz-adv-x="840" 
d="M49 355c0 205 166 371 371 371s371 -166 371 -371s-166 -371 -371 -371s-371 166 -371 371zM89 355c0 -183 148 -331 331 -331s331 148 331 331s-148 331 -331 331s-331 -148 -331 -331zM325 774v60h50v-60h-50zM465 774v60h50v-60h-50z" />
    <glyph glyph-name="Ograve" unicode="&#xd2;" horiz-adv-x="840" 
d="M49 355c0 205 166 371 371 371s371 -166 371 -371s-166 -371 -371 -371s-371 166 -371 371zM89 355c0 -183 148 -331 331 -331s331 148 331 331s-148 331 -331 331s-331 -148 -331 -331zM508 804l-20 -34l-156 90l20 34z" />
    <glyph glyph-name="Ohungarumlaut" unicode="&#x150;" horiz-adv-x="840" 
d="M49 355c0 205 166 371 371 371s371 -166 371 -371s-166 -371 -371 -371s-371 166 -371 371zM89 355c0 -183 148 -331 331 -331s331 148 331 331s-148 331 -331 331s-331 -148 -331 -331zM364 770l-33 22l103 148l33 -22zM510 770l-33 22l103 148l33 -22z" />
    <glyph glyph-name="Omacron" unicode="&#x14c;" horiz-adv-x="840" 
d="M49 355c0 205 166 371 371 371s371 -166 371 -371s-166 -371 -371 -371s-371 166 -371 371zM89 355c0 -183 148 -331 331 -331s331 148 331 331s-148 331 -331 331s-331 -148 -331 -331zM315 794v40h210v-40h-210z" />
    <glyph glyph-name="Oslash" unicode="&#xd8;" horiz-adv-x="840" 
d="M259 -40l18 52c-134 56 -228 188 -228 343c0 205 166 371 371 371c36 0 72 -5 105 -15l14 39h43l-19 -53c134 -56 228 -188 228 -342c0 -205 -166 -371 -371 -371c-36 0 -72 5 -105 15l-13 -39h-43zM89 355c0 -138 83 -255 202 -305l221 623c-29 8 -60 13 -92 13
c-183 0 -331 -148 -331 -331zM751 355c0 137 -83 254 -201 304l-221 -623c29 -8 59 -12 91 -12c183 0 331 148 331 331z" />
    <glyph glyph-name="Otilde" unicode="&#xd5;" horiz-adv-x="840" 
d="M49 355c0 205 166 371 371 371s371 -166 371 -371s-166 -371 -371 -371s-371 166 -371 371zM89 355c0 -183 148 -331 331 -331s331 148 331 331s-148 331 -331 331s-331 -148 -331 -331zM484 832l23 23l28 -28l-23 -23c-35 -35 -71 -35 -106 0c-18 18 -32 18 -50 0
l-23 -23l-28 28l23 23c35 35 71 35 106 0c18 -18 32 -18 50 0z" />
    <glyph glyph-name="P" unicode="P" horiz-adv-x="676" 
d="M412 255h-272v-255h-40v710h312c126 0 228 -102 228 -228s-102 -227 -228 -227zM412 295c104 0 188 83 188 187s-84 188 -188 188h-272v-375h272z" />
    <glyph glyph-name="P.alt" horiz-adv-x="680" 
d="M100 710h312c126 0 228 -102 228 -228s-102 -227 -228 -227h-272v-255h-40v295h259zM412 295c104 0 188 83 188 187s-84 188 -188 188h-239l233 -375h6z" />
    <glyph glyph-name="P.alt1" horiz-adv-x="676" 
d="M412 255h-192v-255h-40v255h-40v-255h-40v710h312c126 0 228 -102 228 -228s-102 -227 -228 -227zM412 295c104 0 188 83 188 187s-84 188 -188 188h-192v-375h192zM140 670v-375h40v375h-40z" />
    <glyph glyph-name="P.alt2" horiz-adv-x="676" 
d="M412 255h-272v-255h-40v295h312c104 0 188 83 188 187s-84 188 -188 188h-312v40h312c126 0 228 -102 228 -228s-102 -227 -228 -227z" />
    <glyph glyph-name="P.alt3" horiz-adv-x="676" 
d="M100 0v710h40v-710h-40zM412 255v40c104 0 188 83 188 187s-84 188 -188 188v40c126 0 228 -102 228 -228s-102 -227 -228 -227z" />
    <glyph glyph-name="P.alt4" horiz-adv-x="676" 
d="M412 255h-192v-255h-40v255h-40v-255h-40v710h312c126 0 228 -102 228 -228s-102 -227 -228 -227zM412 295c104 0 188 83 188 187s-84 188 -188 188h-272v-375h272z" />
    <glyph glyph-name="P.alt5" horiz-adv-x="680" 
d="M360 255l-119 190l-101 -162v-283h-40v295l235 375h-235v40h312c126 0 228 -102 228 -228s-102 -227 -228 -227h-52zM412 670h-30l-118 -188l118 -187h30c104 0 188 83 188 187s-84 188 -188 188z" />
    <glyph glyph-name="P.alt6" horiz-adv-x="680" 
d="M412 255h-272v-255h-40v295l130 207l-130 208h312c126 0 228 -102 228 -228s-102 -227 -228 -227zM412 295c104 0 188 83 188 187s-84 188 -188 188h-239l104 -168l-130 -207h265z" />
    <glyph glyph-name="P.alt7" horiz-adv-x="676" 
d="M412 255h-272v-255h-40v710h312c126 0 228 -102 228 -228s-102 -227 -228 -227zM412 670h-272v-168h459c-10 94 -90 168 -187 168zM412 295c97 0 177 72 187 167h-459v-167h272z" />
    <glyph glyph-name="P.alt8" horiz-adv-x="669" 
d="M412 255h-52v-255h-40v255h-180v-255h-40v710h312c126 0 228 -102 228 -228s-102 -227 -228 -227zM412 295c104 0 188 83 188 187s-84 188 -188 188h-52v-375h52zM140 670v-375h180v375h-180z" />
    <glyph glyph-name="Q" unicode="Q" horiz-adv-x="840" 
d="M49 355c0 205 166 371 371 371s371 -166 371 -371c0 -95 -36 -182 -95 -248l79 -78l-29 -29l-79 78c-65 -58 -152 -94 -247 -94c-205 0 -371 166 -371 371zM89 355c0 -183 148 -331 331 -331c84 0 160 31 219 83l-86 86l28 29l87 -87c51 59 83 135 83 220
c0 183 -148 331 -331 331s-331 -148 -331 -331z" />
    <glyph glyph-name="Q.alt" horiz-adv-x="839" 
d="M49 355c0 205 166 371 371 371s371 -166 371 -371c0 -95 -36 -182 -95 -248l79 -78l-29 -29l-79 78c-66 -58 -152 -94 -247 -94c-205 0 -371 166 -371 371zM420 686c-85 0 -162 -32 -220 -84l468 -467c51 59 83 135 83 220c0 183 -148 331 -331 331zM89 355
c0 -183 148 -331 331 -331c84 0 160 31 219 82l-468 467c-51 -58 -82 -134 -82 -218z" />
    <glyph glyph-name="Q.alt1" horiz-adv-x="840" 
d="M49 355c0 205 166 371 371 371s371 -166 371 -371c0 -199 -155 -360 -351 -370v-105h-40v105c-196 10 -351 171 -351 370zM89 355c0 -176 137 -320 311 -331v86h40v-86c173 11 311 155 311 331c0 183 -148 331 -331 331s-331 -148 -331 -331z" />
    <glyph glyph-name="Q.alt2" horiz-adv-x="840" 
d="M49 355c0 205 166 371 371 371s371 -166 371 -371c0 -199 -155 -360 -351 -370v-105h-40v105c-196 10 -351 171 -351 370zM751 355c0 176 -138 320 -311 330v-661c173 11 311 155 311 331zM89 355c0 -176 137 -320 311 -331v661c-174 -10 -311 -154 -311 -330z" />
    <glyph glyph-name="Q.alt3" horiz-adv-x="840" 
d="M440 -120v105c-7 -1 -14 -1 -20 -1c-7 0 -14 0 -20 1v-105h-40v109c-177 28 -311 181 -311 366c0 205 166 371 371 371s371 -166 371 -371c0 -185 -135 -338 -311 -366v-109h-40zM751 355c0 162 -117 297 -271 325v-651c154 28 271 163 271 326zM89 355
c0 -163 116 -298 271 -326v651c-155 -28 -271 -163 -271 -325zM420 686c-7 0 -14 0 -20 -1v-661h40v661c-7 1 -13 1 -20 1z" />
    <glyph glyph-name="Q.alt4" horiz-adv-x="842" 
d="M776 30l-79 79c-10 -11 -20 -22 -31 -32l79 -78l-29 -29l-82 82c-61 -43 -134 -68 -214 -68c-205 0 -371 166 -371 371s166 371 371 371s371 -166 371 -371c0 -80 -25 -154 -68 -214l82 -82zM420 686c-70 0 -134 -21 -187 -58l461 -459c36 53 57 117 57 186
c0 183 -148 331 -331 331zM89 355c0 -183 148 -331 331 -331c68 0 132 21 185 56l-460 459c-35 -53 -56 -116 -56 -184zM201 603c-11 -10 -22 -20 -31 -31l468 -467c11 10 21 21 31 32z" />
    <glyph glyph-name="Q.alt5" horiz-adv-x="840" 
d="M49 355c0 205 166 371 371 371s371 -166 371 -371c0 -199 -155 -360 -351 -370v-105h-40v105c-196 10 -351 171 -351 370zM89 355c0 -183 148 -331 331 -331s331 148 331 331s-148 331 -331 331s-331 -148 -331 -331zM385 355c0 22 18 40 40 40s40 -18 40 -40
s-18 -40 -40 -40s-40 18 -40 40z" />
    <glyph glyph-name="Q.alt6" horiz-adv-x="839" 
d="M49 355c0 205 166 371 371 371s371 -166 371 -371c0 -95 -36 -182 -95 -248l79 -78l-29 -29l-79 78c-66 -58 -152 -94 -247 -94c-205 0 -371 166 -371 371zM420 686c-85 0 -162 -32 -220 -84l222 -222l220 220c-58 54 -137 86 -222 86zM89 355c0 -86 32 -164 85 -223
l219 219l-222 222c-51 -58 -82 -134 -82 -218zM751 355c0 83 -31 159 -81 217l-220 -220l218 -217c51 59 83 135 83 220zM420 24c84 0 160 31 219 82l-218 217l-218 -218c58 -51 134 -81 217 -81z" />
    <glyph glyph-name="Q.alt7" horiz-adv-x="653" 
d="M46 446c0 155 125 280 280 280s280 -125 280 -280c0 -149 -115 -270 -260 -280v-126h230v-40h-270v166c-146 10 -260 131 -260 280zM86 446c0 -132 108 -240 240 -240s240 108 240 240s-108 240 -240 240s-240 -108 -240 -240z" />
    <glyph glyph-name="Q.alt8" horiz-adv-x="839" 
d="M49 355c0 205 166 371 371 371s371 -166 371 -371c0 -95 -36 -182 -95 -248l79 -78l-29 -29l-79 78c-65 -58 -152 -94 -247 -94c-205 0 -371 166 -371 371zM175 355c0 -135 110 -245 245 -245s245 110 245 245s-110 245 -245 245s-245 -110 -245 -245zM89 355
c0 -183 148 -331 331 -331c84 0 160 31 219 83l-33 32c-50 -43 -115 -69 -186 -69c-157 0 -285 128 -285 285s128 285 285 285s285 -128 285 -285c0 -72 -27 -137 -70 -187l33 -33c51 59 83 135 83 220c0 183 -148 331 -331 331s-331 -148 -331 -331z" />
    <glyph glyph-name="Q.alt9" horiz-adv-x="828" 
d="M50 363c0 200 163 363 363 363s363 -163 363 -363c0 -141 -81 -263 -198 -323h188v-40h-353c-200 0 -363 163 -363 363zM90 363c0 -178 145 -323 323 -323s323 145 323 323s-145 323 -323 323s-323 -145 -323 -323z" />
    <glyph glyph-name="R" unicode="R" 
d="M100 710h312c126 0 228 -102 228 -228c0 -112 -80 -204 -186 -223l176 -259h-48l-173 255h-269v-255h-40v710zM412 295c104 0 188 83 188 187s-84 188 -188 188h-272v-375h272z" />
    <glyph glyph-name="R.alt" horiz-adv-x="645" 
d="M140 315v-315h-40v710h312c109 0 198 -89 198 -198s-89 -197 -198 -197h-211l369 -315h-61zM412 670h-272v-315h272c87 0 158 70 158 157s-71 158 -158 158z" />
    <glyph glyph-name="R.alt1" 
d="M100 710h312c126 0 228 -102 228 -228c0 -112 -80 -204 -186 -223l176 -259h-48l-173 255h-269v-255h-40v295h282zM412 670h-237l254 -375c96 9 171 88 171 187c0 104 -84 188 -188 188z" />
    <glyph glyph-name="R.alt2" 
d="M100 0v710h312c126 0 228 -102 228 -228c0 -112 -80 -204 -186 -223l176 -259h-48l-174 255h-268v-255h-40zM412 670h-237l254 -375c96 9 171 88 171 187c0 104 -84 188 -188 188zM140 651v-356h241z" />
    <glyph glyph-name="R.alt3" 
d="M140 283v-283h-40v295l145 201l-145 214h312c126 0 228 -102 228 -228c0 -112 -80 -204 -186 -223l176 -259h-48l-314 461zM412 670h-237l254 -375c96 9 171 88 171 187c0 104 -84 188 -188 188z" />
    <glyph glyph-name="R.alt4" 
d="M100 710h312c126 0 228 -102 228 -228c0 -112 -80 -204 -186 -223l176 -259h-48l-173 255h-189v-255h-40v255h-40v-255h-40v710zM412 295c104 0 188 83 188 187s-84 188 -188 188h-192v-375h192zM140 670v-375h40v375h-40z" />
    <glyph glyph-name="R.alt5" 
d="M100 710h312c126 0 228 -102 228 -228c0 -112 -80 -204 -186 -223l176 -259h-48l-173 255h-269v-255h-40v710zM412 670h-272v-168h459c-10 94 -90 168 -187 168zM412 295c97 0 177 72 187 167h-459v-167h272z" />
    <glyph glyph-name="R.alt6" 
d="M100 0v710h312c126 0 228 -102 228 -228c0 -112 -80 -204 -186 -223l176 -259h-48l-442 651v-651h-40zM412 670h-237l254 -375c96 9 171 88 171 187c0 104 -84 188 -188 188z" />
    <glyph glyph-name="R.alt7" 
d="M140 710h272c126 0 228 -102 228 -228c0 -112 -80 -204 -186 -223l176 -259h-530v710h40zM412 295c104 0 188 83 188 187s-84 188 -188 188h-272v-375h272zM140 255v-215h415l-146 215h-269z" />
    <glyph glyph-name="R.alt8" 
d="M100 0v710h312c126 0 228 -102 228 -228c0 -112 -80 -204 -186 -223l176 -259h-530zM382 295h30c104 0 188 85 188 187c0 104 -84 188 -188 188h-272v-630h415z" />
    <glyph glyph-name="Racute" unicode="&#x154;" 
d="M100 710h312c126 0 228 -102 228 -228c0 -112 -80 -204 -186 -223l176 -259h-48l-173 255h-269v-255h-40v710zM412 295c104 0 188 83 188 187s-84 188 -188 188h-272v-375h272zM252 770l-20 34l156 90l20 -34z" />
    <glyph glyph-name="Rcaron" unicode="&#x158;" 
d="M100 710h312c126 0 228 -102 228 -228c0 -112 -80 -204 -186 -223l176 -259h-48l-173 255h-269v-255h-40v710zM412 295c104 0 188 83 188 187s-84 188 -188 188h-272v-375h272zM408 894l25 -31l-123 -93l-123 93l25 31l98 -74z" />
    <glyph glyph-name="S" unicode="S" horiz-adv-x="640" 
d="M44 185h40c0 -89 105 -161 235 -161s235 64 235 161c0 95 -105 141 -235 161c-140 22 -255 75 -255 190s114 190 255 190s255 -85 255 -190h-40c0 83 -96 150 -215 150s-215 -59 -215 -150c0 -89 101 -133 215 -150c152 -23 275 -80 275 -201s-123 -201 -275 -201
s-275 90 -275 201z" />
    <glyph glyph-name="S.alt" horiz-adv-x="640" 
d="M44 185h510c0 95 -105 141 -235 161c-140 22 -255 75 -255 190s114 190 255 190s255 -85 255 -190h-470c0 -89 101 -133 215 -150c152 -23 275 -80 275 -201s-123 -201 -275 -201s-275 90 -275 201zM319 24c111 0 204 46 228 121h-456c26 -70 118 -121 228 -121zM319 686
c-101 0 -185 -42 -209 -110h416c-25 63 -108 110 -207 110z" />
    <glyph glyph-name="S.alt1" horiz-adv-x="646" 
d="M44 185h40c0 -89 105 -161 235 -161s235 64 235 161c0 95 -105 141 -235 161c-140 22 -255 75 -255 190s114 190 255 190s255 -85 255 -190l-168 -168c109 -31 188 -87 188 -183c0 -121 -123 -201 -275 -201s-275 90 -275 201zM319 686c-119 0 -215 -59 -215 -150
c0 -89 101 -133 215 -150c15 -2 29 -5 43 -8l171 171c-9 77 -102 137 -214 137z" />
    <glyph glyph-name="S.alt2" horiz-adv-x="646" 
d="M50 185l181 182c-94 30 -161 81 -161 169c0 115 114 190 255 190s255 -85 255 -190h-40c0 83 -96 150 -215 150s-215 -59 -215 -150c0 -89 101 -133 215 -150c152 -23 275 -80 275 -201s-123 -201 -275 -201s-275 90 -275 201zM325 24c130 0 235 64 235 161
c0 95 -105 140 -235 160c-18 3 -34 6 -51 10l-183 -183c10 -83 110 -148 234 -148z" />
    <glyph glyph-name="S.alt3" horiz-adv-x="640" 
d="M44 185h40c0 -89 105 -161 235 -161c35 0 69 5 100 14v285c-31 10 -64 17 -100 23c-140 22 -255 75 -255 190s114 190 255 190s255 -85 255 -190h-40c0 83 -96 150 -215 150c-25 0 -48 -3 -70 -8v-278c22 -6 45 -11 70 -15c152 -22 275 -79 275 -200s-123 -201 -275 -201
s-275 90 -275 201zM104 536c0 -58 43 -98 105 -122v253c-63 -25 -105 -71 -105 -131zM554 185c0 56 -38 96 -95 122v-254c57 28 95 74 95 132z" />
    <glyph glyph-name="S.alt4" horiz-adv-x="640" 
d="M189 380c-75 31 -125 80 -125 156c0 115 114 190 255 190s255 -85 255 -190h-40c0 83 -96 150 -215 150s-215 -59 -215 -150c0 -56 40 -94 98 -119zM426 321l12 37c92 -32 156 -86 156 -173c0 -121 -123 -201 -275 -201s-275 90 -275 201h40c0 -89 105 -161 235 -161
s235 64 235 161c0 67 -52 110 -128 136z" />
    <glyph glyph-name="S.alt5" horiz-adv-x="640" 
d="M44 185l394 173c92 -32 156 -86 156 -173c0 -121 -123 -201 -275 -201s-275 90 -275 201zM574 536l-385 -156c-75 31 -125 80 -125 156c0 115 114 190 255 190s255 -85 255 -190zM554 185c0 62 -46 104 -113 130l-355 -155c18 -77 115 -136 233 -136
c130 0 235 64 235 161zM319 686c-119 0 -215 -59 -215 -150c0 -52 34 -88 85 -113l342 138c-17 71 -106 125 -212 125z" />
    <glyph glyph-name="Sacute" unicode="&#x15a;" horiz-adv-x="640" 
d="M44 185h40c0 -89 105 -161 235 -161s235 64 235 161c0 95 -105 141 -235 161c-140 22 -255 75 -255 190s114 190 255 190s255 -85 255 -190h-40c0 83 -96 150 -215 150s-215 -59 -215 -150c0 -89 101 -133 215 -150c152 -23 275 -80 275 -201s-123 -201 -275 -201
s-275 90 -275 201zM251 770l-20 34l156 90l20 -34z" />
    <glyph glyph-name="Scaron" unicode="&#x160;" horiz-adv-x="640" 
d="M44 185h40c0 -89 105 -161 235 -161s235 64 235 161c0 95 -105 141 -235 161c-140 22 -255 75 -255 190s114 190 255 190s255 -85 255 -190h-40c0 83 -96 150 -215 150s-215 -59 -215 -150c0 -89 101 -133 215 -150c152 -23 275 -80 275 -201s-123 -201 -275 -201
s-275 90 -275 201zM417 894l25 -31l-123 -93l-123 93l25 31l98 -74z" />
    <glyph glyph-name="Scedilla" unicode="&#x15e;" horiz-adv-x="640" 
d="M44 185h40c0 -89 105 -161 235 -161s235 64 235 161c0 95 -105 141 -235 161c-140 22 -255 75 -255 190s114 190 255 190s255 -85 255 -190h-40c0 83 -96 150 -215 150s-215 -59 -215 -150c0 -89 101 -133 215 -150c152 -23 275 -80 275 -201c0 -117 -115 -196 -260 -201
v-24h60v-30c0 -50 -40 -90 -90 -90v30c33 0 60 27 60 60h-60v54c-145 6 -260 93 -260 201z" />
    <glyph glyph-name="T" unicode="T" horiz-adv-x="628" 
d="M14 710h600v-40h-280v-670h-40v670h-280v40z" />
    <glyph glyph-name="T.alt" horiz-adv-x="630" 
d="M15 710h280v-710h-40v670h-240v40zM335 0v710h280v-40h-240v-670h-40z" />
    <glyph glyph-name="T.alt1" horiz-adv-x="660" 
d="M30 710h600v-40h-280v-40h280v-40h-280v-590h-40v590h-280v40h280v40h-280v40z" />
    <glyph glyph-name="T.alt2" horiz-adv-x="712" 
d="M56 710h600v-40h-280v-295h280v-40h-280v-335h-40v335h-280v40h280v295h-280v40z" />
    <glyph glyph-name="T.alt3" horiz-adv-x="634" 
d="M20 710h600v-40h-280v-670h-40v221l-280 449v40zM300 670h-232l232 -372v372z" />
    <glyph glyph-name="T.alt4" horiz-adv-x="634" 
d="M14 710h600v-40l-280 -449v-221h-40v670h-280v40zM566 670h-232v-372z" />
    <glyph glyph-name="T.alt5" horiz-adv-x="434" 
d="M14 710h320v-710h-40v670h-280v40z" />
    <glyph glyph-name="T.alt6" horiz-adv-x="660" 
d="M30 710h600v-40h-240v-40h240v-40h-240v-590h-40v590h-40v-590h-40v590h-240v40h240v40h-240v40zM350 670h-40v-40h40v40z" />
    <glyph glyph-name="T.alt7" horiz-adv-x="634" 
d="M397 0v670h-160v-670h-40v670h-180v40h600v-40h-180v-670h-40z" />
    <glyph glyph-name="Tbar" unicode="&#x166;" horiz-adv-x="650" 
d="M25 710h600v-40h-280v-240h205v-40h-205v-390h-40v390h-205v40h205v240h-280v40z" />
    <glyph glyph-name="Tcaron" unicode="&#x164;" horiz-adv-x="628" 
d="M14 710h600v-40h-280v-670h-40v670h-280v40zM412 894l25 -31l-123 -93l-123 93l25 31l98 -74z" />
    <glyph glyph-name="Thorn" unicode="&#xde;" horiz-adv-x="673" 
d="M412 135h-272v-135h-40v710h40v-120h272c126 0 228 -102 228 -228s-102 -227 -228 -227zM412 175c104 0 188 83 188 187s-84 188 -188 188h-272v-375h272z" />
    <glyph glyph-name="U" unicode="U" horiz-adv-x="756" 
d="M626 272v438h40v-438c0 -159 -129 -288 -288 -288s-288 129 -288 288v438h40v-438c0 -137 111 -248 248 -248s248 111 248 248z" />
    <glyph glyph-name="U.alt" horiz-adv-x="756" 
d="M626 272v438h40v-438c0 -159 -129 -288 -288 -288s-288 129 -288 288v438h40l485 -512c7 23 11 48 11 74zM378 24c96 0 179 54 220 134l-468 494v-380c0 -137 111 -248 248 -248z" />
    <glyph glyph-name="U.alt1" horiz-adv-x="756" 
d="M130 710v-438c0 -26 3 -51 11 -74l485 512h40v-438c0 -159 -129 -288 -288 -288s-288 129 -288 288v438h40zM378 24c137 0 248 111 248 248v380l-469 -494c41 -80 125 -134 221 -134z" />
    <glyph glyph-name="U.alt2" horiz-adv-x="756" 
d="M90 710h576v-438c0 -159 -129 -288 -288 -288s-288 129 -288 288v438zM626 272v398h-496v-398c0 -137 111 -248 248 -248s248 111 248 248z" />
    <glyph glyph-name="U.alt3" horiz-adv-x="756" 
d="M626 272v438h40v-438c0 -159 -129 -288 -288 -288s-288 129 -288 288v438h40v-438c0 -30 5 -58 14 -84h467c10 26 15 54 15 84zM378 24c91 0 171 50 214 124h-429c43 -74 123 -124 215 -124z" />
    <glyph glyph-name="U.alt4" horiz-adv-x="756" 
d="M626 272v438h40v-438c0 -159 -129 -288 -288 -288s-288 129 -288 288v438h40v-438c0 -131 100 -237 228 -247v685h40v-685c127 10 228 116 228 247z" />
    <glyph glyph-name="U.alt5" horiz-adv-x="766" 
d="M626 272v438h40v-710h-40v125c-50 -84 -143 -141 -248 -141c-159 0 -288 129 -288 288v438h40v-438c0 -137 111 -248 248 -248s248 111 248 248z" />
    <glyph glyph-name="U.alt6" horiz-adv-x="710" 
d="M67 0v40h576v-40h-576zM603 454v256h40v-256c0 -159 -129 -288 -288 -288s-288 129 -288 288v256h40v-256c0 -137 111 -248 248 -248s248 111 248 248z" />
    <glyph glyph-name="Uacute" unicode="&#xda;" horiz-adv-x="756" 
d="M626 272v438h40v-438c0 -159 -129 -288 -288 -288s-288 129 -288 288v438h40v-438c0 -137 111 -248 248 -248s248 111 248 248zM310 770l-20 34l156 90l20 -34z" />
    <glyph glyph-name="Ucircumflex" unicode="&#xdb;" horiz-adv-x="756" 
d="M626 272v438h40v-438c0 -159 -129 -288 -288 -288s-288 129 -288 288v438h40v-438c0 -137 111 -248 248 -248s248 111 248 248zM280 770l-25 31l123 93l123 -93l-25 -31l-98 74z" />
    <glyph glyph-name="Udieresis" unicode="&#xdc;" horiz-adv-x="756" 
d="M626 272v438h40v-438c0 -159 -129 -288 -288 -288s-288 129 -288 288v438h40v-438c0 -137 111 -248 248 -248s248 111 248 248zM283 774v60h50v-60h-50zM423 774v60h50v-60h-50z" />
    <glyph glyph-name="Ugrave" unicode="&#xd9;" horiz-adv-x="756" 
d="M626 272v438h40v-438c0 -159 -129 -288 -288 -288s-288 129 -288 288v438h40v-438c0 -137 111 -248 248 -248s248 111 248 248zM466 804l-20 -34l-156 90l20 34z" />
    <glyph glyph-name="Uhungarumlaut" unicode="&#x170;" horiz-adv-x="756" 
d="M626 272v438h40v-438c0 -159 -129 -288 -288 -288s-288 129 -288 288v438h40v-438c0 -137 111 -248 248 -248s248 111 248 248zM292 770l-33 22l103 148l33 -22zM438 770l-33 22l103 148l33 -22z" />
    <glyph glyph-name="Umacron" unicode="&#x16a;" horiz-adv-x="756" 
d="M626 272v438h40v-438c0 -159 -129 -288 -288 -288s-288 129 -288 288v438h40v-438c0 -137 111 -248 248 -248s248 111 248 248zM273 794v40h210v-40h-210z" />
    <glyph glyph-name="Uogonek" unicode="&#x172;" horiz-adv-x="756" 
d="M447 -206c-17 -19 -50 -44 -90 -44c-50 0 -90 40 -90 90c0 76 47 124 75 146c-142 17 -252 139 -252 286v438h40v-438c0 -137 111 -248 248 -248s248 111 248 248v438h40v-438c0 -159 -129 -288 -288 -288h-6c-28 -24 -75 -74 -75 -144c0 -33 27 -60 60 -60
c29 0 52 15 70 35z" />
    <glyph glyph-name="Uring" unicode="&#x16e;" horiz-adv-x="756" 
d="M626 272v438h40v-438c0 -159 -129 -288 -288 -288s-288 129 -288 288v438h40v-438c0 -137 111 -248 248 -248s248 111 248 248zM338 844c0 -22 18 -40 40 -40s40 18 40 40s-18 40 -40 40s-40 -18 -40 -40zM298 844c0 44 36 80 80 80s80 -36 80 -80s-36 -80 -80 -80
s-80 36 -80 80z" />
    <glyph glyph-name="Utilde" unicode="&#x168;" horiz-adv-x="756" 
d="M626 272v438h40v-438c0 -159 -129 -288 -288 -288s-288 129 -288 288v438h40v-438c0 -137 111 -248 248 -248s248 111 248 248zM442 832l23 23l28 -28l-23 -23c-35 -35 -71 -35 -106 0c-18 18 -32 18 -50 0l-23 -23l-28 28l23 23c35 35 71 35 106 0c18 -18 32 -18 50 0z
" />
    <glyph glyph-name="V" unicode="V" horiz-adv-x="694" 
d="M681 710l-308 -710h-52l-308 710h44l290 -669l290 669h44z" />
    <glyph glyph-name="V.alt" horiz-adv-x="694" 
d="M321 0l-308 710h44l452 -295l128 295h44l-308 -710h-52zM86 643l261 -602l146 337z" />
    <glyph glyph-name="V.alt1" horiz-adv-x="694" 
d="M321 0l-308 710h44l128 -295l452 295h44l-308 -710h-52zM201 378l146 -337l261 602z" />
    <glyph glyph-name="V.alt2" horiz-adv-x="694" 
d="M321 0l-308 710h44l290 -669l290 669h44l-308 -710h-52zM295 710l52 -121l52 121h-104z" />
    <glyph glyph-name="V.alt3" horiz-adv-x="694" 
d="M321 0l-308 710h44l159 -367l159 367h44l-181 -418l109 -251l290 669h44l-308 -710h-52z" />
    <glyph glyph-name="V.alt4" horiz-adv-x="694" 
d="M321 0l-308 710h44l290 -669l109 251l-181 418h44l159 -367l159 367h44l-308 -710h-52z" />
    <glyph glyph-name="V.alt5" horiz-adv-x="690" 
d="M679 710l-334 -750l-334 750h44l290 -652l290 652h44z" />
    <glyph glyph-name="V.alt6" horiz-adv-x="694" 
d="M321 0l-308 710h668l-308 -710h-52zM74 670l273 -629l272 629h-545z" />
    <glyph glyph-name="V.alt7" horiz-adv-x="694" 
d="M321 0l-308 710h44l177 -410h225l178 410h44l-308 -710h-52zM252 260l95 -219l95 219h-190z" />
    <glyph glyph-name="V.alt8" horiz-adv-x="694" 
d="M321 0l-308 710h44l290 -669l290 669h44l-308 -710h-52zM439 710h44l-136 -315l-136 315h44l92 -213z" />
    <glyph glyph-name="W" unicode="W" horiz-adv-x="932" 
d="M234 0l-210 710h42l189 -639l190 639h42l190 -639l189 639h42l-210 -710h-42l-190 639l-190 -639h-42z" />
    <glyph glyph-name="W.alt1" horiz-adv-x="932" 
d="M767 377l99 333h42l-210 -710h-42l-190 639l-190 -639h-42l-210 710h42l189 -639l70 236l-119 403h42l98 -332l99 332h42l190 -639l69 235l-119 404h42z" />
    <glyph glyph-name="W.alt10" horiz-adv-x="930" 
d="M465 750l211 -656l189 616h42l-231 -750l-211 659l-211 -659l-231 750h42l189 -616z" />
    <glyph glyph-name="W.alt2" horiz-adv-x="932" 
d="M255 71l190 639h42l98 -332l99 332h42l-119 -404l70 -235l189 639h42l-210 -710h-42l-190 639l-190 -639h-42l-210 710h42l98 -333l99 333h42l-120 -404z" />
    <glyph glyph-name="W.alt3" horiz-adv-x="932" 
d="M234 0l-210 710h884l-210 -710h-42l-190 639l-190 -639h-42zM78 670l177 -599l178 599h-355zM499 670l178 -599l177 599h-355z" />
    <glyph glyph-name="W.alt4" horiz-adv-x="932" 
d="M234 0l-210 710h884l-210 -710h-464zM466 639l-178 -599h356zM499 670l178 -600l177 600h-355zM78 670l177 -599l178 599h-355z" />
    <glyph glyph-name="W.alt5" horiz-adv-x="932" 
d="M908 710l-210 -710h-42l-211 710h42l190 -639l189 639h42zM66 710l210 -710h-42l-210 710h42z" />
    <glyph glyph-name="W.alt6" horiz-adv-x="932" 
d="M255 71l190 639h42l190 -639l189 639h42l-210 -710h-464l-210 710h42zM466 639l-178 -599h356z" />
    <glyph glyph-name="W.alt7" horiz-adv-x="932" 
d="M356 410l89 300h42l89 -300h201l89 300h42l-210 -710h-42l-110 370h-160l-110 -370h-42l-210 710h42l88 -300h202zM588 370l89 -299l88 299h-177zM166 370l89 -299l89 299h-178zM466 639l-68 -229h136z" />
    <glyph glyph-name="W.alt8" horiz-adv-x="968" 
d="M595 0l-111 256l-111 -256h-52l-308 710h44l290 -669l115 265l-175 404h394l-175 -404l115 -265l290 669h44l-308 -710h-52zM348 670l136 -313l135 313h-271z" />
    <glyph glyph-name="W.alt9" horiz-adv-x="968" 
d="M955 710l-308 -710h-52l-111 256l-111 -256h-52l-308 710h44l290 -669l115 265l-175 404h44l153 -353l153 353h44l-175 -404l115 -265l290 669h44z" />
    <glyph glyph-name="X" unicode="X" horiz-adv-x="620" 
d="M66 710l244 -322l244 322h50l-269 -355l269 -355h-50l-244 322l-244 -322h-50l269 355l-269 355h50z" />
    <glyph glyph-name="X.alt" horiz-adv-x="620" 
d="M604 710l-269 -355l269 -355h-588l269 355l-269 355h588zM310 322l-214 -282h427zM96 670l214 -282l213 282h-427z" />
    <glyph glyph-name="X.alt1" horiz-adv-x="620" 
d="M16 0l269 355l-269 355h588l-269 -355l269 -355h-50l-244 322l-244 -322h-50zM96 670l214 -282l213 282h-427z" />
    <glyph glyph-name="X.alt2" horiz-adv-x="620" 
d="M66 710l244 -322l244 322h50l-269 -355l269 -355h-588l269 355l-269 355h50zM310 322l-214 -282h427z" />
    <glyph glyph-name="X.alt3" horiz-adv-x="670" 
d="M91 710l244 -322l244 322h50l-254 -335h234v-40h-234l254 -335h-50l-244 322l-244 -322h-50l254 335h-234v40h234l-254 335h50z" />
    <glyph glyph-name="X.alt4" horiz-adv-x="763" 
d="M746 691l-336 -336l336 -336l-28 -29l-337 336l-336 -336l-28 29l336 336l-336 336l28 29l336 -337l337 337z" />
    <glyph glyph-name="X.alt5" horiz-adv-x="762" 
d="M273 435l-256 256l28 29l256 -256zM301 246l-256 -256l-28 29l256 256zM745 691l-256 -256l-28 29l256 256zM717 -10l-256 256l28 29l256 -256z" />
    <glyph glyph-name="X.alt6" horiz-adv-x="788" 
d="M100 0v710h50l244 -322l244 322h50v-710h-50l-244 322l-244 -322h-50zM419 355l229 -302v604zM369 355l-229 302v-604z" />
    <glyph glyph-name="X.alt7" horiz-adv-x="404" 
d="M354 479l-124 -124l124 -124l-28 -28l-124 124l-124 -124l-28 28l124 124l-124 124l28 28l124 -124l124 124zM78 670v40h248v-40h-248zM78 0v40h248v-40h-248z" />
    <glyph glyph-name="Y" unicode="Y" horiz-adv-x="678" 
d="M319 0v307l-304 403h50l274 -364l274 364h50l-304 -403v-307h-40z" />
    <glyph glyph-name="Y.alt" horiz-adv-x="678" 
d="M319 0v307l-304 403h648l-304 -403v-307h-40zM95 670l244 -324l244 324h-488z" />
    <glyph glyph-name="Y.alt1" horiz-adv-x="459" 
d="M100 0v320l294 390h50l-304 -403v-307h-40z" />
    <glyph glyph-name="Y.alt2" horiz-adv-x="608" 
d="M284 0v207l-244 303v200h40v-186l224 -279l224 279v186h40v-200l-244 -303v-207h-40z" />
    <glyph glyph-name="Y.alt3" horiz-adv-x="678" 
d="M319 0v307l-304 403h50l274 -364l274 364h50l-304 -403v-307h-40zM181 710h50l108 -144l108 144h50l-158 -209z" />
    <glyph glyph-name="Yacute" unicode="&#xdd;" horiz-adv-x="678" 
d="M319 0v307l-304 403h50l274 -364l274 364h50l-304 -403v-307h-40zM271 770l-20 34l156 90l20 -34z" />
    <glyph glyph-name="Ydieresis" unicode="&#x178;" horiz-adv-x="678" 
d="M319 0v307l-304 403h50l274 -364l274 364h50l-304 -403v-307h-40zM244 774v60h50v-60h-50zM384 774v60h50v-60h-50z" />
    <glyph glyph-name="Z" unicode="Z" horiz-adv-x="643" 
d="M41 670v40h566v-40l-524 -630h524v-40h-576v40l524 630h-514z" />
    <glyph glyph-name="Z.alt" horiz-adv-x="683" 
d="M60 670v40h566v-40l-246 -295h246v-40h-279l-245 -295h524v-40h-576v40l245 295h-235v40h269l245 295h-514z" />
    <glyph glyph-name="Z.alt1" horiz-adv-x="642" 
d="M40 670v40h566v-40l-524 -630h524v-40h-576v40l264 318zM321 389l233 281h-462z" />
    <glyph glyph-name="Z.alt2" horiz-adv-x="642" 
d="M41 670v40h566v-40l-260 -312l260 -318v-40h-576v40l524 630h-514zM555 40l-234 286l-238 -286h472z" />
    <glyph glyph-name="Z.alt3" horiz-adv-x="641" 
d="M30 0v40l270 324v306h-260v40h566v-40l-266 -320v-310h266v-40h-576zM300 40v262l-218 -262h218zM340 670v-258l214 258h-214z" />
    <glyph glyph-name="Z.alt4" horiz-adv-x="677" 
d="M59 670v40h566v-160l-536 -410v-100h536v-40h-576v160l536 410v100h-526z" />
    <glyph glyph-name="Z.alt5" horiz-adv-x="640" 
d="M39 670v40h566v-40h-133l-266 -630h399v-40h-576v40h134l266 630h-390z" />
    <glyph glyph-name="Z.alt6" horiz-adv-x="686" 
d="M62 670v40h566v-40l-524 -630h251l273 328v-62l-221 -266h221v-40h-576v40l524 630h-239l-275 -331v63l223 268h-223z" />
    <glyph glyph-name="Z.alt7" horiz-adv-x="661" 
d="M50 670v40h599l-557 -670h524v-40h-609l557 670h-514z" />
    <glyph glyph-name="Zacute" unicode="&#x179;" horiz-adv-x="643" 
d="M41 670v40h566v-40l-524 -630h524v-40h-576v40l524 630h-514zM251 770l-20 34l156 90l20 -34z" />
    <glyph glyph-name="Zcaron" unicode="&#x17d;" horiz-adv-x="643" 
d="M41 670v40h566v-40l-524 -630h524v-40h-576v40l524 630h-514zM417 894l25 -31l-123 -93l-123 93l25 31l98 -74z" />
    <glyph glyph-name="Zdotaccent" unicode="&#x17b;" horiz-adv-x="643" 
d="M41 670v40h566v-40l-524 -630h524v-40h-576v40l524 630h-514zM294 774v60h50v-60h-50z" />
    <glyph glyph-name="a" unicode="a" horiz-adv-x="501" 
d="M100 432l-29 28c36 27 91 50 160 50c109 0 198 -58 198 -174v-336h-40v63c-31 -38 -94 -73 -158 -73c-109 0 -198 71 -198 158s98 158 218 158h138v30c0 94 -71 134 -158 134c-59 0 -102 -19 -131 -38zM389 266h-138c-98 0 -178 -53 -178 -118s71 -118 158 -118
c85 0 154 50 158 113v123z" />
    <glyph glyph-name="aacute" unicode="&#xe1;" horiz-adv-x="501" 
d="M100 432l-29 28c36 27 91 50 160 50c109 0 198 -58 198 -174v-336h-40v63c-31 -38 -94 -73 -158 -73c-109 0 -198 71 -198 158s98 158 218 158h138v30c0 94 -71 134 -158 134c-59 0 -102 -19 -131 -38zM389 266h-138c-98 0 -178 -53 -178 -118s71 -118 158 -118
c85 0 154 50 158 113v123zM173 560l-20 34l156 90l20 -34z" />
    <glyph glyph-name="abreve" unicode="&#x103;" horiz-adv-x="501" 
d="M100 432c29 19 72 38 131 38c87 0 158 -40 158 -134v-30h-138c-120 0 -218 -71 -218 -158s89 -158 198 -158c64 0 122 25 158 63v-53h40v336c0 116 -89 174 -198 174c-69 0 -124 -23 -160 -50zM251 266h138v-123c-4 -63 -73 -113 -158 -113c-87 0 -158 53 -158 118
s80 118 178 118zM354 683c0 -68 -55 -123 -123 -123s-123 55 -123 123h40c0 -46 37 -83 83 -83s83 37 83 83h40z" />
    <glyph glyph-name="acircumflex" unicode="&#xe2;" horiz-adv-x="501" 
d="M100 432c29 19 72 38 131 38c87 0 158 -40 158 -134v-30h-138c-120 0 -218 -71 -218 -158s89 -158 198 -158c64 0 122 25 158 63v-53h40v336c0 116 -89 174 -198 174c-69 0 -124 -23 -160 -50zM251 266h138v-123c-4 -63 -73 -113 -158 -113c-87 0 -158 53 -158 118
s80 118 178 118zM133 560l-25 31l123 93l123 -93l-25 -31l-98 74z" />
    <glyph glyph-name="acute" unicode="&#xb4;" horiz-adv-x="376" 
d="M120 560l-20 34l156 90l20 -34z" />
    <glyph glyph-name="adieresis" unicode="&#xe4;" horiz-adv-x="501" 
d="M100 432c29 19 72 38 131 38c87 0 158 -40 158 -134v-30h-138c-120 0 -218 -71 -218 -158s89 -158 198 -158c64 0 122 25 158 63v-53h40v336c0 116 -89 174 -198 174c-69 0 -124 -23 -160 -50zM251 266h138v-123c-4 -63 -73 -113 -158 -113c-87 0 -158 53 -158 118
s80 118 178 118zM136 564v60h50v-60h-50zM276 564v60h50v-60h-50z" />
    <glyph glyph-name="agrave" unicode="&#xe0;" horiz-adv-x="501" 
d="M100 432l-29 28c36 27 91 50 160 50c109 0 198 -58 198 -174v-336h-40v63c-31 -38 -94 -73 -158 -73c-109 0 -198 71 -198 158s98 158 218 158h138v30c0 94 -71 134 -158 134c-59 0 -102 -19 -131 -38zM389 266h-138c-98 0 -178 -53 -178 -118s71 -118 158 -118
c85 0 154 50 158 113v123zM329 594l-20 -34l-156 90l20 34z" />
    <glyph glyph-name="amacron" unicode="&#x101;" horiz-adv-x="501" 
d="M100 432l-29 28c36 27 91 50 160 50c109 0 198 -58 198 -174v-336h-40v63c-31 -38 -94 -73 -158 -73c-109 0 -198 71 -198 158s98 158 218 158h138v30c0 94 -71 134 -158 134c-59 0 -102 -19 -131 -38zM389 266h-138c-98 0 -178 -53 -178 -118s71 -118 158 -118
c85 0 154 50 158 113v123zM126 584v40h210v-40h-210z" />
    <glyph glyph-name="ampersand" unicode="&#x26;" horiz-adv-x="653" 
d="M51 188c0 53 22 93 55 127v246c0 91 74 165 165 165s165 -74 165 -165c0 -180 -345 -193 -345 -373c0 -87 81 -164 180 -164s180 77 180 164v99h-130v40h170c55 0 100 45 100 100h40c0 -77 -63 -140 -140 -140v-99c0 -109 -99 -204 -220 -204s-220 95 -220 204zM146 561
v-212c102 74 250 114 250 212c0 69 -56 125 -125 125s-125 -56 -125 -125z" />
    <glyph glyph-name="aogonek" unicode="&#x105;" horiz-adv-x="502" 
d="M463 -185l20 -21c-17 -19 -50 -44 -90 -44c-50 0 -90 40 -90 90c0 107 96 160 96 160h-10v63c-31 -38 -94 -73 -158 -73c-109 0 -198 71 -198 158s98 158 218 158h138v30c0 94 -71 134 -158 134c-59 0 -102 -19 -131 -38l-29 28c36 27 91 50 160 50
c109 0 198 -58 198 -174v-336s-96 -64 -96 -160c0 -33 27 -60 60 -60c29 0 52 15 70 35zM389 266h-138c-98 0 -178 -53 -178 -118s71 -118 158 -118c85 0 154 50 158 113v123z" />
    <glyph glyph-name="aring" unicode="&#xe5;" horiz-adv-x="501" 
d="M100 432l-29 28c36 27 91 50 160 50c109 0 198 -58 198 -174v-336h-40v63c-31 -38 -94 -73 -158 -73c-109 0 -198 71 -198 158s98 158 218 158h138v30c0 94 -71 134 -158 134c-59 0 -102 -19 -131 -38zM389 266h-138c-98 0 -178 -53 -178 -118s71 -118 158 -118
c85 0 154 50 158 113v123zM201 634c0 -22 18 -40 40 -40s40 18 40 40s-18 40 -40 40s-40 -18 -40 -40zM161 634c0 44 36 80 80 80s80 -36 80 -80s-36 -80 -80 -80s-80 36 -80 80z" />
    <glyph glyph-name="asciicircum" unicode="^" horiz-adv-x="484" 
d="M105 426h-46l160 284h46l160 -284h-46l-137 243z" />
    <glyph glyph-name="asciitilde" unicode="~" horiz-adv-x="547" 
d="M105 406l-28 28l28 28c75 75 151 35 186 0c48 -48 92 -38 130 0l28 28l28 -28l-28 -28c-75 -75 -151 -35 -186 0c-48 48 -92 38 -130 0z" />
    <glyph glyph-name="asterisk" unicode="*" horiz-adv-x="324" 
d="M178 506h-32v74l-64 -37l-16 28l64 37l-64 37l16 28l64 -37v74h32v-74l64 37l16 -28l-64 -37l64 -37l-16 -28l-64 37v-74z" />
    <glyph glyph-name="at" unicode="@" horiz-adv-x="837" 
d="M423 24v-40c-205 0 -371 166 -371 371s166 371 371 371s371 -166 371 -371v-82c0 -57 -46 -103 -103 -103c-46 0 -85 29 -98 70c-37 -54 -100 -90 -170 -90c-113 0 -205 92 -205 205s92 205 205 205s205 -92 205 -205v-82c0 -35 28 -63 63 -63s63 28 63 63v82
c0 183 -148 331 -331 331s-331 -148 -331 -331s148 -331 331 -331zM423 190c91 0 165 74 165 165s-74 165 -165 165s-165 -74 -165 -165s74 -165 165 -165z" />
    <glyph glyph-name="atilde" unicode="&#xe3;" horiz-adv-x="501" 
d="M100 432c29 19 72 38 131 38c87 0 158 -40 158 -134v-30h-138c-120 0 -218 -71 -218 -158s89 -158 198 -158c64 0 122 25 158 63v-53h40v336c0 116 -89 174 -198 174c-69 0 -124 -23 -160 -50zM251 266h138v-123c-4 -63 -73 -113 -158 -113c-87 0 -158 53 -158 118
s80 118 178 118zM295 622l23 23l28 -28l-23 -23c-35 -35 -71 -35 -106 0c-18 18 -32 18 -50 0l-23 -23l-28 28l23 23c35 35 71 35 106 0c18 -18 32 -18 50 0z" />
    <glyph glyph-name="b" unicode="b" horiz-adv-x="568" 
d="M118 750v-362c35 68 107 122 183 122c123 0 223 -116 223 -260s-100 -260 -223 -260c-76 0 -148 54 -183 121v-111h-40v750h40zM114 250c0 -121 83 -220 185 -220s185 99 185 220s-83 220 -185 220s-185 -99 -185 -220z" />
    <glyph glyph-name="backslash" unicode="\" horiz-adv-x="404" 
d="M84 750l280 -790h-43l-280 790h43z" />
    <glyph glyph-name="bar" unicode="|" horiz-adv-x="190" 
d="M75 -160v1010h40v-1010h-40z" />
    <glyph glyph-name="braceleft" unicode="{" horiz-adv-x="285" 
d="M27 335v40h20c33 0 60 27 60 60v295c0 55 45 100 100 100h60v-40h-60c-33 0 -60 -27 -60 -60v-295c0 -33 -16 -62 -40 -80c24 -19 40 -48 40 -80v-295c0 -33 27 -60 60 -60h60v-40h-60c-55 0 -100 45 -100 100v295c0 31 -27 60 -60 60h-20z" />
    <glyph glyph-name="braceright" unicode="}" horiz-adv-x="285" 
d="M258 375v-40h-20c-33 0 -60 -29 -60 -60v-295c0 -55 -45 -100 -100 -100h-60v40h60c33 0 60 27 60 60v295c0 32 16 61 40 80c-24 18 -40 47 -40 80v295c0 33 -27 60 -60 60h-60v40h60c55 0 100 -45 100 -100v-295c0 -33 27 -60 60 -60h20z" />
    <glyph glyph-name="bracketleft" unicode="[" horiz-adv-x="253" 
d="M115 790v-870h120v-40h-160v950h160v-40h-120z" />
    <glyph glyph-name="bracketright" unicode="]" horiz-adv-x="253" 
d="M138 -80v870h-120v40h160v-950h-160v40h120z" />
    <glyph glyph-name="breve" unicode="&#x2d8;" horiz-adv-x="446" 
d="M346 683c0 -68 -55 -123 -123 -123s-123 55 -123 123h40c0 -46 37 -83 83 -83s83 37 83 83h40z" />
    <glyph glyph-name="brokenbar" unicode="&#xa6;" horiz-adv-x="204" 
d="M82 440v410h40v-410h-40zM82 -160v410h40v-410h-40z" />
    <glyph glyph-name="bullet" unicode="&#x2022;" horiz-adv-x="312" 
d="M96 355c0 33 27 60 60 60s60 -27 60 -60s-27 -60 -60 -60s-60 27 -60 60z" />
    <glyph glyph-name="c" unicode="c" horiz-adv-x="493" 
d="M432 89l29 -28c-44 -45 -105 -71 -172 -71c-135 0 -245 106 -245 260s110 260 245 260c67 0 128 -26 172 -71l-29 -28c-37 38 -87 59 -143 59c-113 0 -205 -89 -205 -220s92 -220 205 -220c55 0 106 22 143 59z" />
    <glyph glyph-name="cacute" unicode="&#x107;" horiz-adv-x="493" 
d="M432 89l29 -28c-44 -45 -105 -71 -172 -71c-135 0 -245 106 -245 260s110 260 245 260c67 0 128 -26 172 -71l-29 -28c-37 38 -87 59 -143 59c-113 0 -205 -89 -205 -220s92 -220 205 -220c55 0 106 22 143 59zM184 560l-20 34l156 90l20 -34z" />
    <glyph glyph-name="caron" unicode="&#x2c7;" horiz-adv-x="446" 
d="M321 684l25 -31l-123 -93l-123 93l25 31l98 -74z" />
    <glyph glyph-name="ccaron" unicode="&#x10d;" horiz-adv-x="493" 
d="M432 89c-37 -37 -88 -59 -143 -59c-113 0 -205 89 -205 220s92 220 205 220c56 0 106 -21 143 -59l29 28c-44 45 -105 71 -172 71c-135 0 -245 -106 -245 -260s110 -260 245 -260c67 0 128 26 172 71zM387 684l25 -31l-123 -93l-123 93l25 31l98 -74z" />
    <glyph glyph-name="ccedilla" unicode="&#xe7;" horiz-adv-x="492" 
d="M431 89l29 -28c-41 -42 -96 -67 -157 -70v-31h60v-30c0 -50 -40 -90 -90 -90v30c33 0 60 27 60 60h-60v61c-128 7 -230 111 -230 259c0 154 110 260 245 260c67 0 128 -26 172 -71l-29 -28c-37 38 -87 59 -143 59c-113 0 -205 -89 -205 -220s92 -220 205 -220
c55 0 106 22 143 59z" />
    <glyph glyph-name="cedilla" unicode="&#xb8;" horiz-adv-x="550" 
d="M230 -70v65h30v-35h60v-30c0 -50 -40 -90 -90 -90v30c33 0 60 27 60 60h-60z" />
    <glyph glyph-name="cent" unicode="&#xa2;" horiz-adv-x="517" 
d="M249 507v63h40v-60c71 0 132 -29 174 -79l-29 -28c-35 42 -86 67 -145 67v-440c59 0 110 24 145 66l29 -27c-42 -50 -103 -79 -174 -79v-60h-40v63c-115 19 -195 118 -195 257c0 138 80 238 195 257zM94 250c0 -115 63 -198 155 -216v432c-92 -19 -155 -101 -155 -216z
" />
    <glyph glyph-name="circumflex" unicode="&#x2c6;" horiz-adv-x="446" 
d="M125 560l-25 31l123 93l123 -93l-25 -31l-98 74z" />
    <glyph glyph-name="colon" unicode=":" horiz-adv-x="184" 
d="M69 0v70h46v-70h-46zM69 350v70h46v-70h-46z" />
    <glyph glyph-name="comma" unicode="," horiz-adv-x="184" 
d="M69 0v70h46v-94c0 -25 -21 -46 -46 -46v30c9 0 16 7 16 16v24h-16z" />
    <glyph glyph-name="copyright" unicode="&#xa9;" horiz-adv-x="592" 
d="M399 251l-22 21c-21 -20 -50 -33 -81 -33c-64 0 -116 52 -116 116s52 116 116 116c31 0 60 -13 81 -33l22 21c-26 26 -63 42 -103 42c-81 0 -146 -65 -146 -146s65 -146 146 -146c40 0 77 16 103 42zM90 355c0 -114 92 -206 206 -206s206 92 206 206s-92 206 -206 206
s-206 -92 -206 -206zM60 355c0 130 106 236 236 236s236 -106 236 -236s-106 -236 -236 -236s-236 106 -236 236z" />
    <glyph glyph-name="d" unicode="d" horiz-adv-x="569" 
d="M490 750v-750h-40v111c-36 -67 -108 -121 -183 -121c-123 0 -223 116 -223 260s100 260 223 260c75 0 147 -54 183 -122v362h40zM454 250c0 121 -83 220 -185 220s-185 -99 -185 -220s83 -220 185 -220s185 99 185 220z" />
    <glyph glyph-name="dagger" unicode="&#x2020;" horiz-adv-x="358" 
d="M57 540v40h102v130h40v-130h102v-40h-102v-240h-40v240h-102z" />
    <glyph glyph-name="daggerdbl" unicode="&#x2021;" horiz-adv-x="362" 
d="M59 540v40h102v130h40v-130h102v-40h-102v-370h102v-40h-102v-130h-40v130h-102v40h102v370h-102z" />
    <glyph glyph-name="dcaron" unicode="&#x10f;" horiz-adv-x="579" 
d="M490 750v-750h-40v111c-36 -67 -108 -121 -183 -121c-123 0 -223 116 -223 260s100 260 223 260c75 0 147 -54 183 -122v362h40zM454 250c0 121 -83 220 -185 220s-185 -99 -185 -220s83 -220 185 -220s185 99 185 220zM570 740v70h46v-94c0 -25 -21 -46 -46 -46v30
c9 0 16 7 16 16v24h-16z" />
    <glyph glyph-name="dcroat" unicode="&#x111;" horiz-adv-x="569" 
d="M490 750v-130h100v-40h-100v-580h-40v111c-36 -67 -108 -121 -183 -121c-123 0 -223 116 -223 260s100 260 223 260c75 0 147 -54 183 -122v192h-90v40h90v130h40zM454 250c0 121 -83 220 -185 220s-185 -99 -185 -220s83 -220 185 -220s185 99 185 220z" />
    <glyph glyph-name="degree" unicode="&#xb0;" horiz-adv-x="306" 
d="M48 615c0 58 47 105 105 105s105 -47 105 -105s-47 -105 -105 -105s-105 47 -105 105zM88 615c0 -36 29 -65 65 -65s65 29 65 65s-29 65 -65 65s-65 -29 -65 -65z" />
    <glyph glyph-name="dieresis" unicode="&#xa8;" horiz-adv-x="390" 
d="M100 564v60h50v-60h-50zM240 564v60h50v-60h-50z" />
    <glyph glyph-name="divide" unicode="&#xf7;" horiz-adv-x="552" 
d="M74 295v40h404v-40h-404zM296 425h-40v92h40v-92zM296 113h-40v92h40v-92z" />
    <glyph glyph-name="dollar" unicode="$" horiz-adv-x="615" 
d="M512 536c0 78 -74 142 -185 149v-303c138 -27 245 -82 245 -197c0 -116 -100 -194 -245 -200v-55h-40v55c-145 7 -245 94 -245 200h40c0 -85 82 -154 205 -161v325c-125 24 -225 77 -225 187c0 109 91 183 225 189v55h40v-55c134 -7 225 -89 225 -189h-40zM532 185
c0 93 -102 137 -205 157v-318c123 6 205 67 205 161zM102 536c0 -87 90 -127 185 -146v295c-112 -6 -185 -61 -185 -149z" />
    <glyph glyph-name="dotaccent" unicode="&#x2d9;" horiz-adv-x="170" 
d="M60 564v60h50v-60h-50z" />
    <glyph glyph-name="dotlessi" unicode="&#x131;" horiz-adv-x="202" 
d="M81 0v500h40v-500h-40z" />
    <glyph glyph-name="e" unicode="e" horiz-adv-x="528" 
d="M269 30c75 0 123 34 161 85l31 -27c-45 -60 -104 -98 -192 -98c-134 0 -225 116 -225 260s91 260 225 260s225 -116 225 -260v-20h-410c8 -112 79 -200 185 -200zM269 470c-106 0 -177 -89 -185 -200h369c-7 111 -78 200 -184 200z" />
    <glyph glyph-name="eacute" unicode="&#xe9;" horiz-adv-x="527" 
d="M268 30c75 0 123 34 161 85l31 -27c-45 -60 -104 -98 -192 -98c-134 0 -225 116 -225 260s91 260 225 260s225 -116 225 -260v-20h-410c8 -112 79 -200 185 -200zM268 470c-106 0 -177 -89 -185 -200h369c-7 111 -78 200 -184 200zM190 560l-20 34l156 90l20 -34z" />
    <glyph glyph-name="ecaron" unicode="&#x11b;" horiz-adv-x="528" 
d="M269 30c75 0 123 34 161 85l31 -27c-45 -60 -104 -98 -192 -98c-134 0 -225 116 -225 260s91 260 225 260s225 -116 225 -260v-20h-410c8 -112 79 -200 185 -200zM269 470c-106 0 -177 -89 -185 -200h369c-7 111 -78 200 -184 200zM367 684l25 -31l-123 -93l-123 93
l25 31l98 -74z" />
    <glyph glyph-name="ecircumflex" unicode="&#xea;" horiz-adv-x="527" 
d="M268 30c75 0 123 34 161 85l31 -27c-45 -60 -104 -98 -192 -98c-134 0 -225 116 -225 260s91 260 225 260s225 -116 225 -260v-20h-410c8 -112 79 -200 185 -200zM268 470c-106 0 -177 -89 -185 -200h369c-7 111 -78 200 -184 200zM160 560l-25 31l123 93l123 -93
l-25 -31l-98 74z" />
    <glyph glyph-name="edieresis" unicode="&#xeb;" horiz-adv-x="527" 
d="M268 30c75 0 123 34 161 85l31 -27c-45 -60 -104 -98 -192 -98c-134 0 -225 116 -225 260s91 260 225 260s225 -116 225 -260v-20h-410c8 -112 79 -200 185 -200zM268 470c-106 0 -177 -89 -185 -200h369c-7 111 -78 200 -184 200zM173 564v60h50v-60h-50zM313 564v60h50
v-60h-50z" />
    <glyph glyph-name="edotaccent" unicode="&#x117;" horiz-adv-x="528" 
d="M269 30c75 0 123 34 161 85l31 -27c-45 -60 -104 -98 -192 -98c-134 0 -225 116 -225 260s91 260 225 260s225 -116 225 -260v-20h-410c8 -112 79 -200 185 -200zM269 470c-106 0 -177 -89 -185 -200h369c-7 111 -78 200 -184 200zM244 564v60h50v-60h-50z" />
    <glyph glyph-name="egrave" unicode="&#xe8;" horiz-adv-x="527" 
d="M268 30c75 0 123 34 161 85l31 -27c-45 -60 -104 -98 -192 -98c-134 0 -225 116 -225 260s91 260 225 260s225 -116 225 -260v-20h-410c8 -112 79 -200 185 -200zM268 470c-106 0 -177 -89 -185 -200h369c-7 111 -78 200 -184 200zM346 594l-20 -34l-156 90l20 34z" />
    <glyph glyph-name="eight" unicode="8" horiz-adv-x="654" 
d="M52 187c0 80 54 153 154 185c-75 32 -119 94 -119 166c0 105 95 188 240 188s240 -83 240 -188c0 -72 -45 -134 -120 -166c101 -32 155 -105 155 -185c0 -108 -97 -203 -275 -203s-275 95 -275 203zM92 187c0 -86 79 -163 235 -163s235 77 235 163c0 84 -76 159 -224 163
h-11c-156 0 -235 -77 -235 -163zM127 538c0 -83 77 -148 200 -148h10c126 3 190 67 190 148c0 83 -77 148 -200 148s-200 -65 -200 -148z" />
    <glyph glyph-name="ellipsis" unicode="&#x2026;" horiz-adv-x="498" 
d="M69 0v70h40v-70h-40zM229 0v70h40v-70h-40zM389 0v70h40v-70h-40z" />
    <glyph glyph-name="emacron" unicode="&#x113;" horiz-adv-x="528" 
d="M269 30c75 0 123 34 161 85l31 -27c-45 -60 -104 -98 -192 -98c-134 0 -225 116 -225 260s91 260 225 260s225 -116 225 -260v-20h-410c8 -112 79 -200 185 -200zM269 470c-106 0 -177 -89 -185 -200h369c-7 111 -78 200 -184 200zM164 584v40h210v-40h-210z" />
    <glyph glyph-name="emdash" unicode="&#x2014;" horiz-adv-x="836" 
d="M66 255v40h704v-40h-704z" />
    <glyph glyph-name="endash" unicode="&#x2013;" horiz-adv-x="536" 
d="M66 255v40h404v-40h-404z" />
    <glyph glyph-name="eng" unicode="&#x14b;" horiz-adv-x="545" 
d="M323 -215v40c61 0 110 49 110 110v387c0 82 -66 148 -148 148c-91 0 -168 -75 -168 -168v-302h-40v500h40v-96c29 57 94 106 168 106c104 0 188 -84 188 -188v-387c0 -83 -67 -150 -150 -150z" />
    <glyph glyph-name="eogonek" unicode="&#x119;" horiz-adv-x="529" 
d="M494 -206c-17 -19 -50 -44 -90 -44c-50 0 -90 40 -90 90c0 61 31 126 62 174c-30 -15 -66 -24 -107 -24c-134 0 -225 116 -225 260s91 260 225 260s225 -116 225 -260v-20h-410c8 -112 79 -200 185 -200c75 0 123 34 161 85l31 -27l-10 -13c-28 -37 -107 -148 -107 -235
c0 -33 27 -60 60 -60c29 0 52 15 70 35zM269 470c-106 0 -177 -89 -185 -200h369c-7 111 -78 200 -184 200z" />
    <glyph glyph-name="equal" unicode="=" horiz-adv-x="512" 
d="M74 215v40h364v-40h-364zM74 375v40h364v-40h-364z" />
    <glyph glyph-name="exclam" unicode="!" horiz-adv-x="202" 
d="M86 180l-8 319v211h46v-209l-8 -321h-30zM78 0v70h46v-70h-46z" />
    <glyph glyph-name="exclamdown" unicode="&#xa1;" horiz-adv-x="202" 
d="M78 211l8 319h30l8 -321v-209h-46v211zM78 640v70h46v-70h-46z" />
    <glyph glyph-name="f" unicode="f" horiz-adv-x="290" 
d="M146 460v-460h-40v460h-80v40h80v110c0 83 67 150 150 150c41 0 79 -17 106 -44l-29 -27c-20 19 -47 31 -77 31c-61 0 -110 -49 -110 -110v-110h140v-40h-140z" />
    <glyph glyph-name="five" unicode="5" horiz-adv-x="631" 
d="M46 180l40 7c7 -90 91 -163 232 -163c149 0 235 81 235 178s-86 178 -235 178h-248l60 330h394v-40h-361l-46 -250h201c171 0 275 -99 275 -218s-104 -218 -275 -218c-160 0 -262 87 -272 196z" />
    <glyph glyph-name="florin" unicode="&#x192;" horiz-adv-x="470" 
d="M445 671l-29 -27c-20 19 -47 31 -77 31c-61 0 -110 -49 -110 -110v-145h140v-40h-140v-445c0 -83 -67 -150 -150 -150c-41 0 -79 17 -106 44l29 27c20 -19 47 -31 77 -31c61 0 110 49 110 110v445h-120v40h120v145c0 83 67 150 150 150c41 0 79 -17 106 -44z" />
    <glyph glyph-name="four" unicode="4" horiz-adv-x="621" 
d="M25 220v40l420 450h40v-450h100v-40h-100v-220h-40v220h-420zM79 260h366v390z" />
    <glyph glyph-name="fraction" unicode="&#x2044;" horiz-adv-x="718" 
d="M719 690l-695 -695l-25 25l695 695z" />
    <glyph glyph-name="g" unicode="g" horiz-adv-x="568" 
d="M490 500v-495c0 -144 -99 -220 -222 -220c-121 0 -185 47 -185 47l18 33c27 -15 83 -40 167 -40c102 0 182 59 182 180v106c-36 -67 -108 -121 -183 -121c-123 0 -223 116 -223 260s100 260 223 260c75 0 147 -54 183 -122v112h40zM454 250c0 121 -83 220 -185 220
s-185 -99 -185 -220s83 -220 185 -220s185 99 185 220z" />
    <glyph glyph-name="germandbls" unicode="&#xdf;" horiz-adv-x="702" 
d="M431 375c82 0 148 65 148 147s-66 148 -148 148h-164c-82 0 -148 -66 -148 -148v-522h-40v522c0 104 84 188 188 188h164c104 0 188 -84 188 -188c0 -66 -34 -124 -86 -157c74 -26 127 -96 127 -178c0 -104 -84 -187 -188 -187h-76c-104 0 -188 84 -188 188h40
c0 -82 66 -148 148 -148h76c82 0 148 65 148 147s-66 148 -148 148h-41v40z" />
    <glyph glyph-name="grave" unicode="`" horiz-adv-x="376" 
d="M276 594l-20 -34l-156 90l20 34z" />
    <glyph glyph-name="greater" unicode="&#x3e;" horiz-adv-x="467" 
d="M66 490v45l364 -200v-45l-364 -200v45l323 177z" />
    <glyph glyph-name="guillemotleft" unicode="&#xab;" horiz-adv-x="490" 
d="M44 254l202 202l28 -28l-174 -174l174 -174l-28 -28zM202 254l202 202l28 -28l-174 -174l174 -174l-28 -28z" />
    <glyph glyph-name="guillemotright" unicode="&#xbb;" horiz-adv-x="490" 
d="M244 456l202 -202l-202 -202l-28 28l174 174l-174 174zM288 254l-202 -202l-28 28l174 174l-174 174l28 28z" />
    <glyph glyph-name="guilsinglleft" unicode="&#x2039;" horiz-adv-x="332" 
d="M44 254l202 202l28 -28l-174 -174l174 -174l-28 -28z" />
    <glyph glyph-name="guilsinglright" unicode="&#x203a;" horiz-adv-x="332" 
d="M86 456l202 -202l-202 -202l-28 28l174 174l-174 174z" />
    <glyph glyph-name="h" unicode="h" horiz-adv-x="547" 
d="M475 312v-312h-40v312c0 87 -71 158 -158 158c-85 0 -158 -71 -158 -158v-312h-40v750h40v-329c31 48 93 89 158 89c109 0 198 -89 198 -198z" />
    <glyph glyph-name="hungarumlaut" unicode="&#x2dd;" horiz-adv-x="402" 
d="M93 543l-33 22l103 148l33 -22zM239 543l-33 22l103 148l33 -22z" />
    <glyph glyph-name="hyphen" unicode="-" horiz-adv-x="464" 
d="M70 260v40h324v-40h-324z" />
    <glyph glyph-name="i" unicode="i" horiz-adv-x="202" 
d="M81 0v500h40v-500h-40zM81 610v100h40v-100h-40z" />
    <glyph glyph-name="iacute" unicode="&#xed;" horiz-adv-x="202" 
d="M81 0v500h40v-500h-40zM33 560l-20 34l156 90l20 -34z" />
    <glyph glyph-name="icircumflex" unicode="&#xee;" horiz-adv-x="202" 
d="M81 0v500h40v-500h-40zM3 560l-25 31l123 93l123 -93l-25 -31l-98 74z" />
    <glyph glyph-name="idieresis" unicode="&#xef;" horiz-adv-x="202" 
d="M81 0v500h40v-500h-40zM6 564v60h50v-60h-50zM146 564v60h50v-60h-50z" />
    <glyph glyph-name="igrave" unicode="&#xec;" horiz-adv-x="202" 
d="M81 0v500h40v-500h-40zM189 594l-20 -34l-156 90l20 34z" />
    <glyph glyph-name="imacron" unicode="&#x12b;" horiz-adv-x="202" 
d="M81 0v500h40v-500h-40zM-4 584v40h210v-40h-210z" />
    <glyph glyph-name="iogonek" unicode="&#x12f;" horiz-adv-x="202" 
d="M81 0v500h40v-500s-96 -64 -96 -160c0 -33 27 -60 60 -60c29 0 52 15 70 35l20 -21c-17 -19 -50 -44 -90 -44c-50 0 -90 40 -90 90c0 107 96 160 96 160h-10zM81 610v100h40v-100h-40z" />
    <glyph glyph-name="itilde" unicode="&#x129;" horiz-adv-x="202" 
d="M81 0v500h40v-500h-40zM165 622l23 23l28 -28l-23 -23c-35 -35 -71 -35 -106 0c-18 18 -32 18 -50 0l-23 -23l-28 28l23 23c35 35 71 35 106 0c18 -18 32 -18 50 0z" />
    <glyph glyph-name="j" unicode="j" horiz-adv-x="202" 
d="M-29 -215v40c61 0 110 49 110 110v565h40v-565c0 -83 -67 -150 -150 -150zM81 610v100h40v-100h-40z" />
    <glyph glyph-name="k" unicode="k" horiz-adv-x="490" 
d="M429 0l-186 258l-124 -127v-131h-40v750h40v-563l304 313h55l-207 -213l207 -287h-49z" />
    <glyph glyph-name="kgreenlandic" unicode="&#x138;" horiz-adv-x="490" 
d="M429 0l-186 258l-124 -127v-131h-40v500h40v-313l304 313h55l-207 -213l207 -287h-49z" />
    <glyph glyph-name="l" unicode="l" horiz-adv-x="202" 
d="M81 0v750h40v-750h-40z" />
    <glyph glyph-name="lacute" unicode="&#x13a;" horiz-adv-x="202" 
d="M81 0v750h40v-750h-40zM33 790l-20 34l156 90l20 -34z" />
    <glyph glyph-name="lcaron" unicode="&#x13e;" horiz-adv-x="210" 
d="M81 0v750h40v-750h-40zM201 740v70h46v-94c0 -25 -21 -46 -46 -46v30c9 0 16 7 16 16v24h-16z" />
    <glyph glyph-name="less" unicode="&#x3c;" horiz-adv-x="467" 
d="M401 535v-45l-323 -178l323 -177v-45l-364 200v45z" />
    <glyph glyph-name="logicalnot" unicode="&#xac;" horiz-adv-x="594" 
d="M480 115v180h-404v40h444v-220h-40z" />
    <glyph glyph-name="lslash" unicode="&#x142;" horiz-adv-x="232" 
d="M16 223v44l80 40v443h40v-423l80 40v-44l-80 -40v-283h-40v263z" />
    <glyph glyph-name="m" unicode="m" horiz-adv-x="902" 
d="M830 322v-322h-40v322c0 82 -66 148 -148 148c-91 0 -168 -75 -168 -168v-302h-40v322c0 82 -66 148 -148 148c-91 0 -168 -75 -168 -168v-302h-40v500h40v-86c34 57 94 96 168 96c76 0 142 -46 172 -111c35 66 104 111 184 111c104 0 188 -84 188 -188z" />
    <glyph glyph-name="macron" unicode="&#xaf;" horiz-adv-x="390" 
d="M90 584v40h210v-40h-210z" />
    <glyph glyph-name="minus" unicode="&#x2212;" horiz-adv-x="532" 
d="M74 305v40h384v-40h-384z" />
    <glyph glyph-name="mu" unicode="&#xb5;" horiz-adv-x="543" 
d="M74 -210v710h40v-322c0 -82 66 -148 148 -148c93 0 168 75 168 168v302h40v-500h-40v85c-33 -52 -99 -95 -168 -95c-60 0 -119 38 -148 81v-281h-40z" />
    <glyph glyph-name="multiply" unicode="&#xd7;" horiz-adv-x="454" 
d="M98 158l-28 28l129 129l-129 129l28 28l129 -129l129 129l28 -28l-129 -129l129 -129l-28 -28l-129 129z" />
    <glyph glyph-name="n" unicode="n" horiz-adv-x="546" 
d="M474 322v-322h-40v322c0 82 -66 148 -148 148c-91 0 -168 -75 -168 -168v-302h-40v500h40v-86c34 57 94 96 168 96c104 0 188 -84 188 -188z" />
    <glyph glyph-name="nacute" unicode="&#x144;" horiz-adv-x="546" 
d="M474 322v-322h-40v322c0 82 -66 148 -148 148c-91 0 -168 -75 -168 -168v-302h-40v500h40v-86c34 57 94 96 168 96c104 0 188 -84 188 -188zM208 560l-20 34l156 90l20 -34z" />
    <glyph glyph-name="ncaron" unicode="&#x148;" horiz-adv-x="546" 
d="M474 322v-322h-40v322c0 82 -66 148 -148 148c-91 0 -168 -75 -168 -168v-302h-40v500h40v-86c34 57 94 96 168 96c104 0 188 -84 188 -188zM374 684l25 -31l-123 -93l-123 93l25 31l98 -74z" />
    <glyph glyph-name="nine" unicode="9" horiz-adv-x="632" 
d="M575 355c0 -201 -84 -371 -275 -371c-95 0 -178 47 -218 112l31 22c33 -55 106 -94 187 -94c169 0 235 152 235 331c0 20 -1 40 -2 59c-31 -90 -115 -154 -233 -154c-150 0 -255 103 -255 230s105 236 255 236c191 0 275 -170 275 -371zM300 686
c-128 0 -215 -91 -215 -196s87 -190 215 -190s209 85 209 190c0 35 -12 68 -14 73c-37 75 -99 123 -195 123z" />
    <glyph glyph-name="ntilde" unicode="&#xf1;" horiz-adv-x="546" 
d="M474 322v-322h-40v322c0 82 -66 148 -148 148c-91 0 -168 -75 -168 -168v-302h-40v500h40v-86c34 57 94 96 168 96c104 0 188 -84 188 -188zM340 622l23 23l28 -28l-23 -23c-35 -35 -71 -35 -106 0c-18 18 -32 18 -50 0l-23 -23l-28 28l23 23c35 35 71 35 106 0
c18 -18 32 -18 50 0z" />
    <glyph glyph-name="numbersign" unicode="#" horiz-adv-x="805" 
d="M462 0l23 210h-200l-23 -210h-40l23 210h-199l4 40h200l23 209h-199l4 40h200l24 211h40l-24 -211h200l24 211h40l-24 -211h200l-4 -40h-201l-23 -209h200l-4 -40h-201l-23 -210h-40zM313 459l-23 -209h200l23 209h-200z" />
    <glyph glyph-name="o" unicode="o" horiz-adv-x="578" 
d="M44 250c0 154 110 260 245 260s245 -106 245 -260s-110 -260 -245 -260s-245 106 -245 260zM84 250c0 -131 92 -220 205 -220s205 89 205 220s-92 220 -205 220s-205 -89 -205 -220z" />
    <glyph glyph-name="oacute" unicode="&#xf3;" horiz-adv-x="578" 
d="M44 250c0 154 110 260 245 260s245 -106 245 -260s-110 -260 -245 -260s-245 106 -245 260zM84 250c0 -131 92 -220 205 -220s205 89 205 220s-92 220 -205 220s-205 -89 -205 -220zM221 560l-20 34l156 90l20 -34z" />
    <glyph glyph-name="ocircumflex" unicode="&#xf4;" horiz-adv-x="578" 
d="M44 250c0 154 110 260 245 260s245 -106 245 -260s-110 -260 -245 -260s-245 106 -245 260zM84 250c0 -131 92 -220 205 -220s205 89 205 220s-92 220 -205 220s-205 -89 -205 -220zM191 560l-25 31l123 93l123 -93l-25 -31l-98 74z" />
    <glyph glyph-name="odieresis" unicode="&#xf6;" horiz-adv-x="578" 
d="M44 250c0 154 110 260 245 260s245 -106 245 -260s-110 -260 -245 -260s-245 106 -245 260zM84 250c0 -131 92 -220 205 -220s205 89 205 220s-92 220 -205 220s-205 -89 -205 -220zM194 564v60h50v-60h-50zM334 564v60h50v-60h-50z" />
    <glyph glyph-name="ogonek" unicode="&#x2db;" horiz-adv-x="280" 
d="M230 -206c-17 -19 -50 -44 -90 -44c-50 0 -90 40 -90 90c0 107 96 160 96 160h30s-96 -64 -96 -160c0 -33 27 -60 60 -60c29 0 52 15 70 35z" />
    <glyph glyph-name="ograve" unicode="&#xf2;" horiz-adv-x="578" 
d="M44 250c0 154 110 260 245 260s245 -106 245 -260s-110 -260 -245 -260s-245 106 -245 260zM84 250c0 -131 92 -220 205 -220s205 89 205 220s-92 220 -205 220s-205 -89 -205 -220zM377 594l-20 -34l-156 90l20 34z" />
    <glyph glyph-name="ohungarumlaut" unicode="&#x151;" horiz-adv-x="578" 
d="M44 250c0 154 110 260 245 260s245 -106 245 -260s-110 -260 -245 -260s-245 106 -245 260zM84 250c0 -131 92 -220 205 -220s205 89 205 220s-92 220 -205 220s-205 -89 -205 -220zM233 560l-33 22l103 148l33 -22zM379 560l-33 22l103 148l33 -22z" />
    <glyph glyph-name="omacron" unicode="&#x14d;" horiz-adv-x="578" 
d="M44 250c0 154 110 260 245 260s245 -106 245 -260s-110 -260 -245 -260s-245 106 -245 260zM84 250c0 -131 92 -220 205 -220s205 89 205 220s-92 220 -205 220s-205 -89 -205 -220zM184 584v40h210v-40h-210z" />
    <glyph glyph-name="one" unicode="1" horiz-adv-x="258" 
d="M138 0v653l-78 -78l-28 28l106 107h40v-710h-40z" />
    <glyph glyph-name="onehalf" unicode="&#xbd;" horiz-adv-x="798" 
d="M754 690l-695 -695l-25 25l695 695zM511 0v34c0 45 47 87 107 123c55 32 65 43 65 67c0 26 -29 47 -65 47s-65 -21 -65 -47h-34c0 45 44 81 99 81s99 -36 99 -81c0 -52 -26 -61 -99 -107c-46 -29 -73 -59 -73 -83h172v-34h-206zM150 410v252l-22 -22l-24 24l46 46h34
v-300h-34z" />
    <glyph glyph-name="onequarter" unicode="&#xbc;" horiz-adv-x="797" 
d="M754 690l-695 -695l-25 25l695 695zM490 76v34l150 190h34v-190h56v-34h-56v-76h-34v76h-150zM150 410v252l-22 -22l-24 24l46 46h34v-300h-34zM533 110h107v135z" />
    <glyph glyph-name="onesuperior" unicode="&#xb9;" horiz-adv-x="200" 
d="M90 410v252l-22 -22l-24 24l46 46h34v-300h-34z" />
    <glyph glyph-name="ordmasculine" unicode="&#xba;" horiz-adv-x="350" 
d="M51 560c0 96 56 155 124 155s124 -59 124 -155s-56 -155 -124 -155s-124 59 -124 155zM85 560c0 -77 40 -121 90 -121s90 44 90 121s-40 121 -90 121s-90 -44 -90 -121z" />
    <glyph glyph-name="oslash" unicode="&#xf8;" horiz-adv-x="578" 
d="M44 250c0 154 110 260 245 260c23 0 45 -3 66 -9l3 9h43l-8 -23c83 -39 141 -126 141 -237c0 -154 -110 -260 -245 -260c-24 0 -47 3 -69 10l-3 -10h-43l8 24c-82 39 -138 125 -138 236zM494 250c0 93 -47 165 -115 199l-145 -412c17 -5 36 -7 55 -7
c113 0 205 89 205 220zM84 250c0 -92 45 -164 112 -198l145 411c-17 4 -34 7 -52 7c-113 0 -205 -89 -205 -220z" />
    <glyph glyph-name="otilde" unicode="&#xf5;" horiz-adv-x="578" 
d="M44 250c0 154 110 260 245 260s245 -106 245 -260s-110 -260 -245 -260s-245 106 -245 260zM84 250c0 -131 92 -220 205 -220s205 89 205 220s-92 220 -205 220s-205 -89 -205 -220zM353 622l23 23l28 -28l-23 -23c-35 -35 -71 -35 -106 0c-18 18 -32 18 -50 0l-23 -23
l-28 28l23 23c35 35 71 35 106 0c18 -18 32 -18 50 0z" />
    <glyph glyph-name="p" unicode="p" horiz-adv-x="568" 
d="M78 -210v710h40v-112c35 68 107 122 183 122c123 0 223 -116 223 -260s-100 -260 -223 -260c-76 0 -148 54 -183 121v-321h-40zM114 250c0 -121 83 -220 185 -220s185 99 185 220s-83 220 -185 220s-185 -99 -185 -220z" />
    <glyph glyph-name="paragraph" unicode="&#xb6;" horiz-adv-x="569" 
d="M265 255c-126 0 -228 101 -228 227s102 228 228 228h222v-710h-40v670h-60v-670h-40v255h-82zM265 295h82v375h-82c-104 0 -188 -84 -188 -188s84 -187 188 -187z" />
    <glyph glyph-name="parenleft" unicode="(" horiz-adv-x="245" 
d="M215 -120c-88 0 -160 213 -160 475s72 475 160 475v-20c-66 0 -120 -204 -120 -455s54 -455 120 -455v-20z" />
    <glyph glyph-name="parenright" unicode=")" horiz-adv-x="245" 
d="M30 -120v20c66 0 120 204 120 455s-54 455 -120 455v20c88 0 160 -213 160 -475s-72 -475 -160 -475z" />
    <glyph glyph-name="percent" unicode="%" horiz-adv-x="735" 
d="M41 0l600 710h53l-600 -710h-53zM51 590c0 66 54 120 120 120s120 -54 120 -120s-54 -120 -120 -120s-120 54 -120 120zM91 590c0 -44 36 -80 80 -80s80 36 80 80s-36 80 -80 80s-80 -36 -80 -80zM444 120c0 66 54 120 120 120s120 -54 120 -120s-54 -120 -120 -120
s-120 54 -120 120zM484 120c0 -44 36 -80 80 -80s80 36 80 80s-36 80 -80 80s-80 -36 -80 -80z" />
    <glyph glyph-name="period" unicode="." horiz-adv-x="184" 
d="M69 0v70h46v-70h-46z" />
    <glyph glyph-name="periodcentered" unicode="&#xb7;" horiz-adv-x="184" 
d="M69 320v70h46v-70h-46z" />
    <glyph glyph-name="perthousand" unicode="&#x2030;" horiz-adv-x="1029" 
d="M41 0l600 710h53l-600 -710h-53zM51 590c0 66 54 120 120 120s120 -54 120 -120s-54 -120 -120 -120s-120 54 -120 120zM91 590c0 -44 36 -80 80 -80s80 36 80 80s-36 80 -80 80s-80 -36 -80 -80zM444 120c0 66 54 120 120 120s120 -54 120 -120s-54 -120 -120 -120
s-120 54 -120 120zM484 120c0 -44 36 -80 80 -80s80 36 80 80s-36 80 -80 80s-80 -36 -80 -80zM754 120c0 66 54 120 120 120s120 -54 120 -120s-54 -120 -120 -120s-120 54 -120 120zM794 120c0 -44 36 -80 80 -80s80 36 80 80s-36 80 -80 80s-80 -36 -80 -80z" />
    <glyph glyph-name="pi" unicode="&#x3c0;" horiz-adv-x="574" 
d="M427 0v420h-280v-420h-40v420h-80v40h520v-40h-80v-420h-40z" />
    <glyph glyph-name="plus" unicode="+" horiz-adv-x="502" 
d="M49 295v40h182v182h40v-182h182v-40h-182v-182h-40v182h-182z" />
    <glyph glyph-name="plusminus" unicode="&#xb1;" horiz-adv-x="486" 
d="M81 375v40h142v142h40v-142h142v-40h-142v-142h-40v142h-142zM81 113v40h324v-40h-324z" />
    <glyph glyph-name="q" unicode="q" horiz-adv-x="568" 
d="M490 500v-710h-40v321c-36 -67 -108 -121 -183 -121c-123 0 -223 116 -223 260s100 260 223 260c75 0 147 -54 183 -122v112h40zM454 250c0 121 -83 220 -185 220s-185 -99 -185 -220s83 -220 185 -220s185 99 185 220z" />
    <glyph glyph-name="question" unicode="?" horiz-adv-x="565" 
d="M217 180c0 109 28 109 155 196c86 59 115 109 115 160c0 81 -85 150 -215 150s-195 -69 -195 -150h-40c0 103 83 190 235 190s255 -87 255 -190c0 -76 -45 -136 -145 -203c-97 -65 -125 -66 -125 -153h-40zM214 0v70h46v-70h-46z" />
    <glyph glyph-name="questiondown" unicode="&#xbf;" horiz-adv-x="565" 
d="M348 530c0 -109 -28 -109 -155 -196c-86 -59 -115 -109 -115 -160c0 -81 85 -150 215 -150s195 69 195 150h40c0 -103 -83 -190 -235 -190s-255 87 -255 190c0 76 45 136 145 203c97 65 125 66 125 153h40zM351 710v-70h-46v70h46z" />
    <glyph glyph-name="quotedbl" unicode="&#x22;" horiz-adv-x="254" 
d="M67 570v140h40v-140h-40zM147 570v140h40v-140h-40z" />
    <glyph glyph-name="quotedblbase" unicode="&#x201e;" horiz-adv-x="270" 
d="M156 70v70h46v-94c0 -25 -21 -46 -46 -46v30c9 0 16 7 16 16v24h-16zM70 70v70h46v-94c0 -25 -21 -46 -46 -46v30c9 0 16 7 16 16v24h-16z" />
    <glyph glyph-name="quotedblleft" unicode="&#x201c;" horiz-adv-x="265" 
d="M112 710v-30c-9 0 -16 -7 -16 -16v-24h16v-70h-46v94c0 25 21 46 46 46zM198 710v-30c-9 0 -16 -7 -16 -16v-24h16v-70h-46v94c0 25 21 46 46 46z" />
    <glyph glyph-name="quotedblright" unicode="&#x201d;" horiz-adv-x="257" 
d="M153 640v70h46v-94c0 -25 -21 -46 -46 -46v30c9 0 16 7 16 16v24h-16zM67 640v70h46v-94c0 -25 -21 -46 -46 -46v30c9 0 16 7 16 16v24h-16z" />
    <glyph glyph-name="quoteleft" unicode="&#x2018;" horiz-adv-x="179" 
d="M112 710v-30c-9 0 -16 -7 -16 -16v-24h16v-70h-46v94c0 25 21 46 46 46z" />
    <glyph glyph-name="quoteright" unicode="&#x2019;" horiz-adv-x="171" 
d="M67 640v70h46v-94c0 -25 -21 -46 -46 -46v30c9 0 16 7 16 16v24h-16z" />
    <glyph glyph-name="quotesinglbase" unicode="&#x201a;" horiz-adv-x="183" 
d="M69 70v70h46v-94c0 -25 -21 -46 -46 -46v30c9 0 16 7 16 16v24h-16z" />
    <glyph glyph-name="quotesingle" unicode="'" horiz-adv-x="171" 
d="M67 640v70h46v-70h-46zM83 616v24h30v-24h-30zM67 570v30c9 0 16 7 16 16h30c0 -25 -21 -46 -46 -46z" />
    <glyph glyph-name="r" unicode="r" horiz-adv-x="313" 
d="M306 510v-40c-124 0 -188 -86 -188 -203v-267h-40v500h40v-111c28 73 87 121 188 121z" />
    <glyph glyph-name="racute" unicode="&#x155;" horiz-adv-x="313" 
d="M306 510v-40c-124 0 -188 -86 -188 -203v-267h-40v500h40v-111c28 73 87 121 188 121zM124 560l-20 34l156 90l20 -34z" />
    <glyph glyph-name="rcaron" unicode="&#x159;" horiz-adv-x="313" 
d="M306 510v-40c-124 0 -188 -86 -188 -203v-267h-40v500h40v-111c28 73 87 121 188 121zM290 684l25 -31l-123 -93l-123 93l25 31l98 -74z" />
    <glyph glyph-name="registered" unicode="&#xae;" horiz-adv-x="592" 
d="M60 355c0 130 106 236 236 236s236 -106 236 -236s-106 -236 -236 -236s-236 106 -236 236zM90 355c0 -114 92 -206 206 -206s206 92 206 206s-92 206 -206 206s-206 -92 -206 -206zM206 214v282h109c50 0 91 -41 91 -91c0 -43 -30 -79 -69 -89l65 -102h-35l-64 100h-67
v-100h-30zM236 466v-122h79c34 0 61 27 61 61s-27 61 -61 61h-79z" />
    <glyph glyph-name="ring" unicode="&#x2da;" horiz-adv-x="360" 
d="M140 634c0 -22 18 -40 40 -40s40 18 40 40s-18 40 -40 40s-40 -18 -40 -40zM100 634c0 44 36 80 80 80s80 -36 80 -80s-36 -80 -80 -80s-80 36 -80 80z" />
    <glyph glyph-name="s" unicode="s" horiz-adv-x="487" 
d="M40 134h40c0 -71 88 -104 163 -104s163 33 163 104c0 67 -69 85 -163 104c-119 24 -189 51 -189 136s90 136 189 136s189 -51 189 -136h-40c0 65 -78 96 -149 96s-149 -31 -149 -96c0 -63 59 -79 149 -96c122 -23 203 -55 203 -144s-96 -144 -203 -144s-203 55 -203 144z
" />
    <glyph glyph-name="sacute" unicode="&#x15b;" horiz-adv-x="487" 
d="M40 134h40c0 -71 88 -104 163 -104s163 33 163 104c0 67 -69 85 -163 104c-119 24 -189 51 -189 136s90 136 189 136s189 -51 189 -136h-40c0 65 -78 96 -149 96s-149 -31 -149 -96c0 -63 59 -79 149 -96c122 -23 203 -55 203 -144s-96 -144 -203 -144s-203 55 -203 144z
M175 560l-20 34l156 90l20 -34z" />
    <glyph glyph-name="scaron" unicode="&#x161;" horiz-adv-x="487" 
d="M40 134h40c0 -71 88 -104 163 -104s163 33 163 104c0 67 -69 85 -163 104c-119 24 -189 51 -189 136s90 136 189 136s189 -51 189 -136h-40c0 65 -78 96 -149 96s-149 -31 -149 -96c0 -63 59 -79 149 -96c122 -23 203 -55 203 -144s-96 -144 -203 -144s-203 55 -203 144z
M341 684l25 -31l-123 -93l-123 93l25 31l98 -74z" />
    <glyph glyph-name="scedilla" unicode="&#x15f;" horiz-adv-x="486" 
d="M40 134h40c0 -71 88 -104 163 -104s163 33 163 104c0 67 -69 85 -163 104c-119 24 -189 51 -189 136s90 136 189 136s189 -51 189 -136h-40c0 65 -78 96 -149 96s-149 -31 -149 -96c0 -63 59 -79 149 -96c122 -23 203 -55 203 -144c0 -85 -87 -138 -188 -143v-31h60v-30
c0 -50 -40 -90 -90 -90v30c33 0 60 27 60 60h-60v61c-101 5 -188 58 -188 143z" />
    <glyph glyph-name="section" unicode="&#xa7;" horiz-adv-x="526" 
d="M58 128h40c0 -71 88 -104 163 -104s163 33 163 104c0 67 -69 85 -163 104c-119 24 -189 51 -189 136c0 52 34 92 83 114c-53 22 -83 52 -83 108c0 85 90 136 189 136s189 -51 189 -136h-40c0 65 -78 96 -149 96s-149 -31 -149 -96c0 -63 59 -79 149 -96
c122 -23 203 -55 203 -144c0 -51 -31 -90 -76 -115c48 -22 76 -55 76 -107c0 -89 -96 -144 -203 -144s-203 55 -203 144zM112 368c0 -63 59 -79 149 -96c26 -5 49 -10 71 -16c50 14 92 45 92 94c0 67 -69 89 -163 104c-23 4 -36 7 -36 7c-59 -8 -113 -39 -113 -93z" />
    <glyph glyph-name="semicolon" unicode=";" horiz-adv-x="184" 
d="M69 0v70h46v-94c0 -25 -21 -46 -46 -46v30c9 0 16 7 16 16v24h-16zM69 350v70h46v-70h-46z" />
    <glyph glyph-name="seven" unicode="7" horiz-adv-x="518" 
d="M25 670v40h480v-40l-334 -670h-44l334 670h-436z" />
    <glyph glyph-name="six" unicode="6" horiz-adv-x="632" 
d="M57 355c0 201 84 371 275 371c95 0 178 -47 218 -112l-31 -22c-33 55 -106 94 -187 94c-169 0 -235 -152 -235 -331c0 -20 1 -40 2 -59c31 90 115 154 233 154c150 0 255 -103 255 -230s-105 -236 -255 -236c-191 0 -275 170 -275 371zM332 24c128 0 215 91 215 196
s-87 190 -215 190s-209 -85 -209 -190c0 -35 12 -68 14 -73c37 -75 99 -123 195 -123z" />
    <glyph glyph-name="slash" unicode="/" horiz-adv-x="404" 
d="M40 -40l280 790h43l-280 -790h-43z" />
    <glyph glyph-name="A.alt1" 
d="M372 710l308 -710h-668l308 710h52zM346 668l-273 -628h545z" />
    <glyph glyph-name="sterling" unicode="&#xa3;" horiz-adv-x="529" 
d="M96 516c0 116 94 210 210 210c65 0 123 -29 162 -76l-29 -28c-31 39 -79 64 -133 64c-94 0 -170 -76 -170 -170c0 -62 31 -112 48 -176h206v-40h-197c2 -14 3 -27 3 -42c0 -122 -88 -218 -88 -218h368v-40h-420v40s100 104 100 218c0 14 -2 28 -4 42h-96v40h85
c-18 56 -45 110 -45 176z" />
    <glyph glyph-name="t" unicode="t" horiz-adv-x="260" 
d="M9 470v40h90v190l40 10v-200h100v-40h-100v-330c0 -55 45 -100 100 -100v-40c-77 0 -140 63 -140 140v330h-90z" />
    <glyph glyph-name="tbar" unicode="&#x167;" horiz-adv-x="268" 
d="M15 470v40h90v190l40 10v-200h100v-40h-100v-140h100v-40h-100v-150c0 -55 45 -100 100 -100v-40c-77 0 -140 63 -140 140v150h-90v40h90v140h-90z" />
    <glyph glyph-name="tcaron" unicode="&#x165;" horiz-adv-x="259" 
d="M9 470v40h90v190l40 10v-200h100v-40h-100v-330c0 -55 45 -100 100 -100v-40c-77 0 -140 63 -140 140v330h-90zM219 720v70h46v-94c0 -25 -21 -46 -46 -46v30c9 0 16 7 16 16v24h-16z" />
    <glyph glyph-name="thorn" unicode="&#xfe;" horiz-adv-x="569" 
d="M79 -210v920h40v-322c35 68 107 122 183 122c123 0 223 -116 223 -260s-100 -260 -223 -260c-76 0 -148 54 -183 121v-321h-40zM115 250c0 -121 83 -220 185 -220s185 99 185 220s-83 220 -185 220s-185 -99 -185 -220z" />
    <glyph glyph-name="three" unicode="3" horiz-adv-x="644" 
d="M287 350v40h30c133 0 200 67 200 148c0 83 -77 148 -200 148c-115 0 -192 -57 -199 -132l-40 6c10 94 104 166 239 166c145 0 240 -83 240 -188c0 -72 -45 -134 -120 -166c101 -32 155 -105 155 -185c0 -108 -97 -203 -275 -203c-166 0 -264 83 -274 181l40 6
c7 -79 87 -147 234 -147c156 0 235 77 235 163c0 84 -79 163 -235 163h-30z" />
    <glyph glyph-name="threequarters" unicode="&#xbe;" horiz-adv-x="796" 
d="M759 690l-695 -695l-25 25l695 695zM495 76v34l150 190h34v-190h56v-34h-56v-76h-34v76h-150zM172 543h-10v34h10c36 0 65 24 65 52c0 29 -29 52 -65 52s-65 -23 -65 -52h-34c0 47 44 86 99 86s99 -39 99 -86c0 -28 -16 -53 -40 -69c24 -16 40 -41 40 -69
c0 -47 -44 -86 -99 -86s-99 39 -99 86h34c0 -29 29 -52 65 -52s65 23 65 52c0 28 -29 52 -65 52zM538 110h107v135z" />
    <glyph glyph-name="threesuperior" unicode="&#xb3;" horiz-adv-x="316" 
d="M157 543h-10v34h10c36 0 65 24 65 52c0 29 -29 52 -65 52s-65 -23 -65 -52h-34c0 47 44 86 99 86s99 -39 99 -86c0 -28 -16 -53 -40 -69c24 -16 40 -41 40 -69c0 -47 -44 -86 -99 -86s-99 39 -99 86h34c0 -29 29 -52 65 -52s65 23 65 52c0 28 -29 52 -65 52z" />
    <glyph glyph-name="tilde" unicode="&#x2dc;" horiz-adv-x="430" 
d="M279 622l23 23l28 -28l-23 -23c-35 -35 -71 -35 -106 0c-18 18 -32 18 -50 0l-23 -23l-28 28l23 23c35 35 71 35 106 0c18 -18 32 -18 50 0z" />
    <glyph glyph-name="trademark" unicode="&#x2122;" horiz-adv-x="657" 
d="M544 426v234l-94 -234h-30l-94 234v-234h-30v284h40l99 -247l99 247h40v-284h-30zM42 680v30h224v-30h-97v-254h-30v254h-97z" />
    <glyph glyph-name="two" unicode="2" horiz-adv-x="632" 
d="M45 40c0 119 152 207 295 286c131 73 195 129 195 210s-85 150 -215 150c-122 0 -206 -61 -214 -135l-40 7c11 93 113 168 254 168c152 0 255 -87 255 -190c0 -106 -84 -171 -235 -256c-112 -63 -255 -143 -255 -240h490v-40h-530v40z" />
    <glyph glyph-name="twosuperior" unicode="&#xb2;" horiz-adv-x="342" 
d="M65 410v34c0 45 47 87 107 123c55 32 65 43 65 67c0 26 -29 47 -65 47s-65 -21 -65 -47h-34c0 45 44 81 99 81s99 -36 99 -81c0 -52 -26 -61 -99 -107c-46 -29 -73 -59 -73 -83h172v-34h-206z" />
    <glyph glyph-name="u" unicode="u" horiz-adv-x="546" 
d="M468 500v-500h-40v85c-33 -52 -99 -95 -168 -95c-104 0 -188 84 -188 188v322h40v-322c0 -82 66 -148 148 -148c90 0 168 75 168 168v302h40z" />
    <glyph glyph-name="uacute" unicode="&#xfa;" horiz-adv-x="546" 
d="M468 500v-500h-40v85c-33 -52 -99 -95 -168 -95c-104 0 -188 84 -188 188v322h40v-322c0 -82 66 -148 148 -148c90 0 168 75 168 168v302h40zM202 560l-20 34l156 90l20 -34z" />
    <glyph glyph-name="ucircumflex" unicode="&#xfb;" horiz-adv-x="546" 
d="M468 500v-500h-40v85c-33 -52 -99 -95 -168 -95c-104 0 -188 84 -188 188v322h40v-322c0 -82 66 -148 148 -148c90 0 168 75 168 168v302h40zM172 560l-25 31l123 93l123 -93l-25 -31l-98 74z" />
    <glyph glyph-name="udieresis" unicode="&#xfc;" horiz-adv-x="546" 
d="M468 500v-500h-40v85c-33 -52 -99 -95 -168 -95c-104 0 -188 84 -188 188v322h40v-322c0 -82 66 -148 148 -148c90 0 168 75 168 168v302h40zM175 564v60h50v-60h-50zM315 564v60h50v-60h-50z" />
    <glyph glyph-name="ugrave" unicode="&#xf9;" horiz-adv-x="546" 
d="M468 500v-500h-40v85c-33 -52 -99 -95 -168 -95c-104 0 -188 84 -188 188v322h40v-322c0 -82 66 -148 148 -148c90 0 168 75 168 168v302h40zM358 594l-20 -34l-156 90l20 34z" />
    <glyph glyph-name="uhungarumlaut" unicode="&#x171;" horiz-adv-x="546" 
d="M468 500v-500h-40v85c-33 -52 -99 -95 -168 -95c-104 0 -188 84 -188 188v322h40v-322c0 -82 66 -148 148 -148c90 0 168 75 168 168v302h40zM194 560l-33 22l103 148l33 -22zM340 560l-33 22l103 148l33 -22z" />
    <glyph glyph-name="umacron" unicode="&#x16b;" horiz-adv-x="546" 
d="M468 500v-500h-40v85c-33 -52 -99 -95 -168 -95c-104 0 -188 84 -188 188v322h40v-322c0 -82 66 -148 148 -148c90 0 168 75 168 168v302h40zM165 584v40h210v-40h-210z" />
    <glyph glyph-name="underscore" unicode="_" horiz-adv-x="562" 
d="M59 -50v40h444v-40h-444z" />
    <glyph glyph-name="uni0122" unicode="&#x122;" horiz-adv-x="753" 
d="M341 366h347v-366h-40v62c-63 -49 -142 -78 -228 -78c-205 0 -371 166 -371 371s166 371 371 371c96 0 183 -36 249 -96l-27 -29c-59 53 -136 85 -222 85c-183 0 -331 -148 -331 -331s148 -331 331 -331c88 0 168 34 228 90v212h-307v40zM397 -110v70h46v-94
c0 -25 -21 -46 -46 -46v30c9 0 16 7 16 16v24h-16z" />
    <glyph glyph-name="uni0136" unicode="&#x136;" horiz-adv-x="652" 
d="M590 0l-273 381l-177 -180v-201h-40v710h40v-451l444 451h55l-294 -300l294 -410h-49zM311 -110v70h46v-94c0 -25 -21 -46 -46 -46v30c9 0 16 7 16 16v24h-16z" />
    <glyph glyph-name="uni0137" unicode="&#x137;" horiz-adv-x="490" 
d="M429 0l-186 258l-124 -127v-131h-40v750h40v-563l304 313h55l-207 -213l207 -287h-49zM235 -110v70h46v-94c0 -25 -21 -46 -46 -46v30c9 0 16 7 16 16v24h-16z" />
    <glyph glyph-name="uni013B" unicode="&#x13b;" horiz-adv-x="617" 
d="M100 0v710h40v-670h460v-40h-500zM327 -110v70h46v-94c0 -25 -21 -46 -46 -46v30c9 0 16 7 16 16v24h-16z" />
    <glyph glyph-name="uni013C" unicode="&#x13c;" horiz-adv-x="202" 
d="M81 0v750h40v-750h-40zM78 -110v70h46v-94c0 -25 -21 -46 -46 -46v30c9 0 16 7 16 16v24h-16z" />
    <glyph glyph-name="uni0145" unicode="&#x145;" horiz-adv-x="776" 
d="M636 0l-496 644v-644h-40v710h40l496 -644v644h40v-710h-40zM365 -110v70h46v-94c0 -25 -21 -46 -46 -46v30c9 0 16 7 16 16v24h-16z" />
    <glyph glyph-name="uni0146" unicode="&#x146;" horiz-adv-x="546" 
d="M253 -110v70h46v-94c0 -25 -21 -46 -46 -46v30c9 0 16 7 16 16v24h-16zM474 322v-322h-40v322c0 82 -66 148 -148 148c-91 0 -168 -75 -168 -168v-302h-40v500h40v-86c34 57 94 96 168 96c104 0 188 -84 188 -188z" />
    <glyph glyph-name="uni0156" unicode="&#x156;" 
d="M100 710h312c126 0 228 -102 228 -228c0 -112 -80 -204 -186 -223l176 -259h-48l-173 255h-269v-255h-40v710zM412 295c104 0 188 83 188 187s-84 188 -188 188h-272v-375h272zM321 -110v70h46v-94c0 -25 -21 -46 -46 -46v30c9 0 16 7 16 16v24h-16z" />
    <glyph glyph-name="uni0157" unicode="&#x157;" horiz-adv-x="313" 
d="M306 510v-40c-124 0 -188 -86 -188 -203v-267h-40v500h40v-111c28 73 87 121 188 121zM75 -110v70h46v-94c0 -25 -21 -46 -46 -46v30c9 0 16 7 16 16v24h-16z" />
    <glyph glyph-name="uni0162" unicode="&#x162;" horiz-adv-x="628" 
d="M14 710h600v-40h-280v-670h-40v670h-280v40zM291 -130v70h46v-94c0 -25 -21 -46 -46 -46v30c9 0 16 7 16 16v24h-16z" />
    <glyph glyph-name="uni0163" unicode="&#x163;" horiz-adv-x="260" 
d="M9 470v40h90v190l40 10v-200h100v-40h-100v-330c0 -55 45 -100 100 -100v-40c-77 0 -140 63 -140 140v330h-90zM99 -130v70h46v-94c0 -25 -21 -46 -46 -46v30c9 0 16 7 16 16v24h-16z" />
    <glyph glyph-name="uogonek" unicode="&#x173;" horiz-adv-x="547" 
d="M502 -185l20 -21c-17 -19 -50 -44 -90 -44c-50 0 -90 40 -90 90c0 107 96 160 96 160h-10v85c-33 -52 -99 -95 -168 -95c-104 0 -188 84 -188 188v322h40v-322c0 -82 66 -148 148 -148c90 0 168 75 168 168v302h40v-500s-96 -64 -96 -160c0 -33 27 -60 60 -60
c29 0 52 15 70 35z" />
    <glyph glyph-name="uring" unicode="&#x16f;" horiz-adv-x="546" 
d="M468 500v-500h-40v85c-33 -52 -99 -95 -168 -95c-104 0 -188 84 -188 188v322h40v-322c0 -82 66 -148 148 -148c90 0 168 75 168 168v302h40zM230 634c0 -22 18 -40 40 -40s40 18 40 40s-18 40 -40 40s-40 -18 -40 -40zM190 634c0 44 36 80 80 80s80 -36 80 -80
s-36 -80 -80 -80s-80 36 -80 80z" />
    <glyph glyph-name="utilde" unicode="&#x169;" horiz-adv-x="546" 
d="M468 500v-500h-40v85c-33 -52 -99 -95 -168 -95c-104 0 -188 84 -188 188v322h40v-322c0 -82 66 -148 148 -148c90 0 168 75 168 168v302h40zM334 622l23 23l28 -28l-23 -23c-35 -35 -71 -35 -106 0c-18 18 -32 18 -50 0l-23 -23l-28 28l23 23c35 35 71 35 106 0
c18 -18 32 -18 50 0z" />
    <glyph glyph-name="v" unicode="v" horiz-adv-x="504" 
d="M484 500l-210 -500h-44l-210 500h44l188 -448l188 448h44z" />
    <glyph glyph-name="w" unicode="w" 
d="M667 500l-150 -500h-42l-129 434l-129 -434h-42l-150 500h42l129 -434l129 434h42l129 -434l129 434h42z" />
    <glyph glyph-name="x" unicode="x" horiz-adv-x="449" 
d="M429 500l-180 -250l180 -250h-49l-156 216l-155 -216h-49l180 250l-180 250h49l155 -216l156 216h49z" />
    <glyph glyph-name="y" unicode="y" horiz-adv-x="505" 
d="M485 500l-264 -629c-33 -79 -118 -81 -118 -81v40s58 2 79 53l49 117l-210 500h44l188 -448l188 448h44z" />
    <glyph glyph-name="yacute" unicode="&#xfd;" horiz-adv-x="505" 
d="M485 500l-264 -629c-33 -79 -118 -81 -118 -81v40s58 2 79 53l49 117l-210 500h44l188 -448l188 448h44zM185 560l-20 34l156 90l20 -34z" />
    <glyph glyph-name="ydieresis" unicode="&#xff;" horiz-adv-x="505" 
d="M485 500l-264 -629c-33 -79 -118 -81 -118 -81v40s58 2 79 53l49 117l-210 500h44l188 -448l188 448h44zM158 564v60h50v-60h-50zM298 564v60h50v-60h-50z" />
    <glyph glyph-name="yen" unicode="&#xa5;" horiz-adv-x="704" 
d="M676 710l-274 -363h112v-40h-142v-119h142v-40h-142v-148h-40v148h-142v40h142v119h-142v40h112l-274 363h50l274 -363l274 363h50z" />
    <glyph glyph-name="z" unicode="z" horiz-adv-x="460" 
d="M48 460v40h376v-40l-345 -420h345v-40h-396v40l345 420h-325z" />
    <glyph glyph-name="zacute" unicode="&#x17a;" horiz-adv-x="460" 
d="M48 460v40h376v-40l-345 -420h345v-40h-396v40l345 420h-325zM158 560l-20 34l156 90l20 -34z" />
    <glyph glyph-name="zcaron" unicode="&#x17e;" horiz-adv-x="460" 
d="M48 460v40h376v-40l-345 -420h345v-40h-396v40l345 420h-325zM324 684l25 -31l-123 -93l-123 93l25 31l98 -74z" />
    <glyph glyph-name="zdotaccent" unicode="&#x17c;" horiz-adv-x="460" 
d="M48 460v40h376v-40l-345 -420h345v-40h-396v40l345 420h-325zM201 564v60h50v-60h-50z" />
    <glyph glyph-name="zero" unicode="0" horiz-adv-x="702" 
d="M56 355c0 201 104 371 295 371s295 -170 295 -371s-104 -371 -295 -371s-295 170 -295 371zM96 355c0 -179 86 -331 255 -331s255 152 255 331s-86 331 -255 331s-255 -152 -255 -331z" />
    <glyph glyph-name="B.alt10" horiz-adv-x="733" 
d="M493 0h-393v375h318l-318 335h352c104 0 188 -84 188 -188c0 -66 -34 -124 -86 -157c74 -26 127 -96 127 -178c0 -104 -84 -187 -188 -187zM493 335h-353v-295h353c82 0 148 65 148 147s-66 148 -148 148zM452 670h-259l278 -294c73 9 129 70 129 146
c0 82 -66 148 -148 148z" />
    <glyph glyph-name="thinspace" unicode="&#x2009;" horiz-adv-x="214" 
 />
    <glyph glyph-name="hairspace" unicode="&#x200a;" horiz-adv-x="107" 
 />
    <glyph glyph-name="A" unicode="A" 
d="M372 710l308 -710h-44l-95 218h-391l-94 -218h-44l308 710h52zM346 668l-178 -410h356z" />
    <glyph glyph-name="A.alt" 
d="M372 710l308 -710h-44l-290 668l-290 -668h-44l308 710h52z" />
    </font>
</defs>
</svg>
